<?xml version="1.0" standalone="no"?>
<!DOCTYPE svg PUBLIC "-//W3C//DTD SVG 1.1//EN" "http://www.w3.org/Graphics/SVG/1.1/DTD/svg11.dtd" >
<svg>
<metadata>
Created by FontForge 20090914 at Mon Jun  1 16:21:55 2020
 By www-data
&#194;&#169; 1987, 1991, 1993, 2002 Adobe Systems Incorporated. All rights reserved.
</metadata>
<defs>
<font id="FuturaStd-Book" horiz-adv-x="616" >
  <font-face 
    font-family="Futura Std Book"
    font-weight="400"
    font-stretch="normal"
    units-per-em="1000"
    panose-1="2 11 5 2 2 2 4 2 3 3"
    ascent="825"
    descent="-175"
    x-height="470"
    cap-height="754"
    bbox="-161 -293.001 1178 1006"
    underline-thickness="50"
    underline-position="-200"
    unicode-range="U+0020-U+FB02"
  />
<missing-glyph horiz-adv-x="500" 
d="M0 0v700h500v-700h-500zM250 395l170 255h-340zM280 350l170 -255v510zM80 50h340l-170 255zM50 605v-510l170 255z" />
    <glyph glyph-name="f_i" unicode="fi" horiz-adv-x="519" 
d="M151 396v-396.002h-80v396h-44v74h44v187c0 58.667 7 99.334 21 122.001c24.667 39.333 65 59 121 59c16.667 0 35.667 -3.33301 57 -10v-81c-22 7.33301 -40 11 -54 11c-12.667 0 -23.167 -2.16699 -31.5 -6.5s-14.833 -9.16602 -19.5 -14.499s-8 -14.5 -10 -27.5
s-3.16699 -24.333 -3.5 -34s-0.5 -25.167 -0.5 -46.5v-159h119v-74h-119zM428 469.998v-470h-80v470h80zM388 703.998c15.333 0 28.666 -5.66699 39.999 -17s17 -24.666 17 -39.999c0 -16 -5.66699 -29.5 -17 -40.5s-24.666 -16.5 -39.999 -16.5s-28.666 5.5 -39.999 16.5
s-17 24.5 -17 40.5c0 15.333 5.66699 28.666 17 39.999s24.666 17 39.999 17z" />
    <glyph glyph-name="f_l" unicode="fl" horiz-adv-x="501" 
d="M428 825v-825h-80v825h80zM151 396v-396.002h-80v396h-44v74h44v187c0 58.667 7 99.334 21 122.001c24.667 39.333 65 59 121 59c16.667 0 35.667 -3.33301 57 -10v-81c-22 7.33301 -40 11 -54 11c-12.667 0 -23.167 -2.16699 -31.5 -6.5s-14.833 -9.16602 -19.5 -14.499
s-8 -14.5 -10 -27.5s-3.16699 -24.333 -3.5 -34s-0.5 -25.167 -0.5 -46.5v-159h119v-74h-119z" />
    <glyph glyph-name=".notdef" horiz-adv-x="500" 
d="M0 0v700h500v-700h-500zM250 395l170 255h-340zM280 350l170 -255v510zM80 50h340l-170 255zM50 605v-510l170 255z" />
    <glyph glyph-name="space" unicode=" " horiz-adv-x="308" 
 />
    <glyph glyph-name="exclam" unicode="!" horiz-adv-x="338" 
d="M169 99c15.333 0 28.5 -5.33301 39.5 -16s16.5 -23.667 16.5 -39s-5.5 -28.666 -16.5 -39.999s-24.167 -17 -39.5 -17s-28.5 5.66699 -39.5 17s-16.5 24.666 -16.5 39.999s5.5 28.333 16.5 39s24.167 16 39.5 16zM128 153v601h82v-601h-82z" />
    <glyph glyph-name="quotedbl" unicode="&#x22;" horiz-adv-x="457" 
d="M102 754h94l-18 -328h-58zM261 754h94l-18 -328h-58z" />
    <glyph glyph-name="numbersign" unicode="#" 
d="M236 754h77l-36 -204h124l35 204h79l-35 -204h92v-78h-105l-29 -171h101v-78h-115l-40 -223h-76l39 223h-123l-42 -223h-75l39 223h-102v78h115l29 171h-107v78h119zM266 472l-29 -171h123l29 171h-123z" />
    <glyph glyph-name="dollar" unicode="$" 
d="M356 344l0.000976562 -268.002c31.333 10.667 56.166 28.834 74.499 54.501s27.5 55.167 27.5 88.5c0 50.667 -34 92.334 -102 125.001zM290.001 462.998l0.000976562 218.998c-26.667 -5.33301 -48.834 -18.666 -66.501 -39.999s-26.5 -45.666 -26.5 -72.999
c0 -42.667 31 -78 93 -106zM290.002 68.9961l0.000976562 305.002c-26 10.667 -48.167 21.334 -66.5 32.001s-36.666 23.667 -54.999 39s-32.166 33.666 -41.499 54.999s-14 45.333 -14 72c0 50.667 16.667 93 50 127s75.666 54.667 126.999 62v103h66v-103
c33.333 -4.66699 64.166 -17.334 92.499 -38.001s50.166 -46 65.499 -76l-66 -43c-25.333 44.667 -56 70.334 -92 77.001v-247c28.667 -12 52.667 -23.667 72 -35s38.5 -25.333 57.5 -42s33.167 -36.334 42.5 -59.001s14 -48.334 14 -77.001
c0 -55.333 -17.5 -104 -52.5 -146s-79.5 -68.667 -133.5 -80v-110h-66v104c-53.333 2.66699 -100.333 22.334 -141 59.001s-65.667 81.667 -75 135l81 23c4.66699 -35.333 19.667 -66.333 45 -93s55.333 -41.334 90 -44.001z" />
    <glyph glyph-name="percent" unicode="%" horiz-adv-x="797" 
d="M200 703c-28 0 -52.333 -9.83301 -73 -29.5s-31 -43.5 -31 -71.5c0 -27.333 10.333 -50.833 31 -70.5s45 -29.5 73 -29.5s52.333 9.83301 73 29.5s31 43.167 31 70.5c0 28 -10.333 51.833 -31 71.5s-45 29.5 -73 29.5zM597 767l40 -24l-436 -756l-43 26zM598 252
c-28 0 -52.333 -9.83301 -73 -29.5s-31 -43.5 -31 -71.5c0 -27.333 10.333 -50.833 31 -70.5s45 -29.5 73 -29.5s52.333 9.83301 73 29.5s31 43.167 31 70.5c0 28 -10.333 51.833 -31 71.5s-45 29.5 -73 29.5zM200 767c46 0 85.5 -16 118.5 -48s49.5 -71 49.5 -117
c0 -45.333 -16.5 -84 -49.5 -116s-72.5 -48 -118.5 -48s-85.5 15.833 -118.5 47.5s-49.5 70.5 -49.5 116.5s16.5 85 49.5 117s72.5 48 118.5 48zM598 316c46 0 85.5 -16 118.5 -48s49.5 -71 49.5 -117c0 -45.333 -16.5 -84 -49.5 -116s-72.5 -48 -118.5 -48
s-85.5 15.833 -118.5 47.5s-49.5 70.5 -49.5 116.5s16.5 85 49.5 117s72.5 48 118.5 48z" />
    <glyph glyph-name="ampersand" unicode="&#x26;" horiz-adv-x="695" 
d="M302 492l7.00098 5.00195l21.5 16c11.667 8.66699 19.334 14.5 23.001 17.5s9.66699 8.66699 18 17s14.166 15.333 17.499 21s6.5 13.167 9.5 22.5s4.5 18.666 4.5 27.999c0 22.667 -8 41.167 -24 55.5s-35.333 21.5 -58 21.5c-23.333 0 -43 -8 -59 -24
s-24 -35.667 -24 -59c0 -7.33301 0.666992 -14.333 2 -21s4.16602 -13.834 8.49902 -21.501l9.5 -16.5c2 -3.33301 6.5 -10 13.5 -20s11.167 -15.667 12.5 -17zM581.001 0.00195312l-81.001 106c-88.667 -79.333 -169 -119 -241 -119c-59.333 0 -110.833 19.667 -154.5 59
s-65.5 88.333 -65.5 147c0 24 3.83301 46.833 11.5 68.5s16.167 39.834 25.5 54.501s23.833 30.5 43.5 47.5s35.834 30 48.501 39l56 38.5l9 6c-1.33301 2 -4.66602 6.66699 -9.99902 14l-11 15c-2 2.66699 -5.33301 7.5 -10 14.5s-8 12.167 -10 15.5l-9 15
c-4 6.66699 -6.83301 12.167 -8.5 16.5l-6.5 16.5c-2.66699 6.66699 -4.5 12.5 -5.5 17.5s-2 10.667 -3 17s-1.5 12.5 -1.5 18.5c0 47.333 15.667 85.833 47 115.5s70.666 44.5 117.999 44.5c44 0 81.667 -14 113 -42s47 -63.333 47 -106c0 -21.333 -3.33301 -41 -10 -59
s-18 -35.333 -34 -52s-29 -29.334 -39 -38.001s-26.667 -21.667 -50 -39l159 -203l85 99l61 -50l-96 -112l128 -165h-106zM282 385.002l-35.998 -24c-26.667 -18 -46.834 -32.5 -60.501 -43.5s-27.834 -27.5 -42.501 -49.5s-22 -45 -22 -69c0 -36 13.333 -67.667 40 -95
s57.667 -41 93 -41c23.333 0 48.333 6.5 75 19.5s47 25 61 36s34 27.833 60 50.5z" />
    <glyph glyph-name="quotesingle" unicode="'" horiz-adv-x="289" 
d="M98 754h94l-18 -328h-58z" />
    <glyph glyph-name="parenleft" unicode="(" horiz-adv-x="287" 
d="M184 788l71 -33.998c-53.333 -141.333 -80 -301.333 -80 -480s26.667 -338.667 80 -480l-71 -34c-60.667 129.333 -91 300.666 -91 513.999s30.333 384.666 91 513.999z" />
    <glyph glyph-name="parenright" unicode=")" horiz-adv-x="287" 
d="M32 754l71 33.998c60.667 -129.333 91 -300.666 91 -513.999s-30.333 -384.666 -91 -513.999l-71 34c53.333 141.333 80 301.333 80 480s-26.667 338.667 -80 480z" />
    <glyph glyph-name="asterisk" unicode="*" horiz-adv-x="592" 
d="M265 614l-6 140h75l-6 -140l132 49l24 -72l-136 -38l87 -110l-61 -45l-78 118l-78 -118l-61 45l88 110l-136 38l24 72z" />
    <glyph glyph-name="plus" unicode="+" 
d="M269 498h78v-203h203v-78h-203v-203h-78v203h-203v78h203v203z" />
    <glyph glyph-name="comma" unicode="," horiz-adv-x="308" 
d="M151 110l74 -26l-113 -256l-54 22z" />
    <glyph glyph-name="hyphen" unicode="-" horiz-adv-x="208" 
d="M2 278h205v-74h-205v74z" />
    <glyph glyph-name="period" unicode="." horiz-adv-x="308" 
d="M154 99c15.333 0 28.5 -5.33301 39.5 -16s16.5 -23.667 16.5 -39s-5.5 -28.666 -16.5 -39.999s-24.167 -17 -39.5 -17s-28.5 5.66699 -39.5 17s-16.5 24.666 -16.5 39.999s5.5 28.333 16.5 39s24.167 16 39.5 16z" />
    <glyph glyph-name="slash" unicode="/" horiz-adv-x="570" 
d="M486 825l66 -30l-469 -952l-65 30z" />
    <glyph glyph-name="zero" unicode="0" 
d="M308 767c45.333 0 85.998 -12.833 121.998 -38.5s64.333 -58.834 85 -99.501s36.334 -82.667 47.001 -126s16 -85.666 16 -126.999c0 -47.333 -6.16699 -93.833 -18.5 -139.5s-29.5 -87.167 -51.5 -124.5s-50.5 -67.5 -85.5 -90.5s-73.167 -34.5 -114.5 -34.5
s-79.5 11.5 -114.5 34.5s-63.5 53.167 -85.5 90.5s-39.167 78.833 -51.5 124.5s-18.5 92.167 -18.5 139.5c0 41.333 5.33301 83.666 16 126.999s26.334 85.333 47.001 126s49 73.834 85 99.501s76.667 38.5 122 38.5zM307.998 689c-33.333 0 -62.833 -11.333 -88.5 -34
s-45.334 -51.167 -59.001 -85.5s-23.667 -68.5 -30 -102.5s-9.16602 -65.667 -8.49902 -95c0.666992 -30 4.33398 -61.167 11.001 -93.5s16.667 -65.166 30 -98.499s32.666 -60.833 57.999 -82.5s54.333 -32.5 87 -32.5s61.667 10.833 87 32.5s44.666 49.167 57.999 82.5
s23.333 66.166 30 98.499s10.334 63.5 11.001 93.5c0.666992 29.333 -2.16602 61 -8.49902 95s-16.333 68.167 -30 102.5s-33.334 62.833 -59.001 85.5s-55.167 34 -88.5 34z" />
    <glyph glyph-name="one" unicode="1" 
d="M283 676h-125l44 78h165v-754h-84v676z" />
    <glyph glyph-name="two" unicode="2" 
d="M211 78h317.999v-78h-488l353 417c34 40.667 51 82.667 51 126c0 41.333 -14.667 76 -44 104s-64.666 42 -105.999 42c-44.667 0 -80.834 -14.667 -108.501 -44s-42.167 -66.333 -43.5 -111h-84c1.33301 66.667 24 122.167 68 166.5s99 66.5 165 66.5
c64.667 0 120.334 -21.167 167.001 -63.5s70 -95.5 70 -159.5c0 -62 -19 -115 -57 -159z" />
    <glyph glyph-name="three" unicode="3" 
d="M271 357l-0.000976562 77.999c46 2 82.333 11.833 109 29.5s40 48.5 40 92.5c0 40 -12.167 72 -36.5 96s-56.166 36 -95.499 36c-36.667 0 -65.667 -11 -87 -33s-33.666 -51.333 -36.999 -88h-83c6 61.333 27.167 109.833 63.5 145.5s84.833 53.5 145.5 53.5
c61.333 0 112.333 -19 153 -57s61 -87.667 61 -149c0 -34 -8.66699 -66.167 -26 -96.5s-41 -53.166 -71 -68.499c35.333 -16 62.166 -40.667 80.499 -74s27.5 -70.333 27.5 -111c0 -65.333 -22.667 -119 -68 -161s-100.666 -63 -165.999 -63c-62 0 -114.667 19.333 -158 58
s-65.333 89 -66 151h82c2 -38 17 -69.333 45 -94s61.333 -37 100 -37c41.333 0 76.166 14.667 104.499 44s42.5 65 42.5 107c0 46.667 -14.833 82.167 -44.5 106.5s-68.167 35.833 -115.5 34.5z" />
    <glyph glyph-name="four" unicode="4" 
d="M476 200h93v-78h-93v-122h-84v122h-386l468 674h2v-596zM392 200v341h-2l-237 -341h239z" />
    <glyph glyph-name="five" unicode="5" 
d="M523 676l-241.001 -0.00292969l-49 -161l45 4c73.333 0 133.5 -25.333 180.5 -76s70.5 -113 70.5 -187c0 -77.333 -26.667 -141.5 -80 -192.5s-119 -76.5 -197 -76.5c-49.333 0 -93.833 11.833 -133.5 35.5s-72.167 56.834 -97.5 99.501l67 48
c17.333 -31.333 40.833 -56.666 70.5 -75.999s61.834 -29 96.501 -29c55.333 0 100.833 18.333 136.5 55s53.5 82.667 53.5 138c0 52.667 -18 96.334 -54 131.001s-80.667 52 -134 52c-46 0 -93.667 -16 -143 -48l109 361h300v-78z" />
    <glyph glyph-name="six" unicode="6" 
d="M363 767l62.999 -47.001l-174 -234l2 -2c6.66699 2.66699 17.334 5.33398 32.001 8.00098c10.667 2 22 3 34 3c68 0 125.667 -24.333 173 -73s71 -107.334 71 -176.001c0 -72 -25.5 -133.167 -76.5 -183.5s-112.167 -75.5 -183.5 -75.5s-132.5 25.333 -183.5 76
s-76.5 111.334 -76.5 182.001c0 56.667 23 117 69 181zM303.999 64.999c48.667 0 90.167 17.333 124.5 52s51.5 76.667 51.5 126c0 48.667 -17.167 89.834 -51.5 123.501s-75.833 50.5 -124.5 50.5c-49.333 0 -91 -16.833 -125 -50.5s-51 -74.834 -51 -123.501
c0 -49.333 17.167 -91.333 51.5 -126s75.833 -52 124.5 -52z" />
    <glyph glyph-name="seven" unicode="7" 
d="M463 676h-412v78h556l-506 -767l-66 39z" />
    <glyph glyph-name="eight" unicode="8" 
d="M308 355c-40.667 0 -75.167 -14.167 -103.5 -42.5s-42.5 -62.5 -42.5 -102.5s14.167 -74.167 42.5 -102.5s62.833 -42.5 103.5 -42.5s75.167 14.167 103.5 42.5s42.5 62.5 42.5 102.5s-14.167 74.167 -42.5 102.5s-62.833 42.5 -103.5 42.5zM308 767
c59.333 0 109.331 -20 149.998 -60s61 -90 61 -150c0 -33.333 -8.16699 -65.166 -24.5 -95.499s-38.833 -53.5 -67.5 -69.5c34.667 -16 61.834 -40.333 81.501 -73s29.5 -68.667 29.5 -108c0 -64.667 -22 -118.167 -66 -160.5s-98.667 -63.5 -164 -63.5
s-120 21.167 -164 63.5s-66 95.833 -66 160.5c0 39.333 9.83301 75.333 29.5 108s46.834 57 81.501 73c-28.667 16 -51.167 39.167 -67.5 69.5s-24.5 62.166 -24.5 95.499c0 60 20.333 110 61 150s90.667 60 150 60zM307.998 689c-36 0 -66.833 -12.667 -92.5 -38
s-38.5 -56 -38.5 -92c0 -36.667 12.833 -67.834 38.5 -93.501s56.5 -38.5 92.5 -38.5s66.833 12.833 92.5 38.5s38.5 56.834 38.5 93.501c0 36 -12.833 66.667 -38.5 92s-56.5 38 -92.5 38z" />
    <glyph glyph-name="nine" unicode="9" 
d="M245 -13l-63 42.999l174 239l-2 2c-22 -6.66699 -43.667 -10 -65 -10c-68.667 0 -126.5 24.333 -173.5 73s-70.5 107.334 -70.5 176.001c0 71.333 25.5 132 76.5 182s112.167 75 183.5 75s132.5 -25 183.5 -75s76.5 -110.667 76.5 -182c0 -56 -23.333 -116.333 -70 -181z
M305 688.999c-48.667 0 -90.167 -17.167 -124.5 -51.5s-51.5 -75.833 -51.5 -124.5s17 -89.834 51 -123.501s75.667 -50.5 125 -50.5c48.667 0 90.167 16.833 124.5 50.5s51.5 74.834 51.5 123.501s-17.167 90.167 -51.5 124.5s-75.833 51.5 -124.5 51.5z" />
    <glyph glyph-name="colon" unicode=":" horiz-adv-x="308" 
d="M154 99c15.333 0 28.5 -5.33301 39.5 -16s16.5 -23.667 16.5 -39s-5.5 -28.666 -16.5 -39.999s-24.167 -17 -39.5 -17s-28.5 5.66699 -39.5 17s-16.5 24.666 -16.5 39.999s5.5 28.333 16.5 39s24.167 16 39.5 16zM154 483c15.333 0 28.5 -5.33301 39.5 -16
s16.5 -23.667 16.5 -39s-5.5 -28.666 -16.5 -39.999s-24.167 -17 -39.5 -17s-28.5 5.66699 -39.5 17s-16.5 24.666 -16.5 39.999s5.5 28.333 16.5 39s24.167 16 39.5 16z" />
    <glyph glyph-name="semicolon" unicode=";" horiz-adv-x="308" 
d="M153 110l74 -26l-113 -256l-54 22zM179 483c15.333 0 28.5 -5.33301 39.5 -16s16.5 -23.667 16.5 -39s-5.5 -28.666 -16.5 -39.999s-24.167 -17 -39.5 -17s-28.5 5.66699 -39.5 17s-16.5 24.666 -16.5 39.999s5.5 28.333 16.5 39s24.167 16 39.5 16z" />
    <glyph glyph-name="less" unicode="&#x3c;" 
d="M550 498v-85l-368 -157l368 -157v-85l-484 207v70z" />
    <glyph glyph-name="equal" unicode="=" 
d="M66 373h484v-78h-484v78zM66 217h484v-78h-484v78z" />
    <glyph glyph-name="greater" unicode="&#x3e;" 
d="M66 413v85l484 -207v-70l-484 -207v85l368 157z" />
    <glyph glyph-name="question" unicode="?" horiz-adv-x="488" 
d="M325 328l80.9971 0.000976562c1.33301 -48.667 -13.5 -89.667 -44.5 -123s-70.5 -50 -118.5 -50c-46.667 0 -85.5 15.667 -116.5 47s-46.5 70 -46.5 116c0 41.333 12 73.666 36 96.999s57.667 42 101 56c46.667 14.667 76.334 26.334 89.001 35.001
c25.333 18 38 44.667 38 80c0 30.667 -9.66699 55.667 -29 75s-44 29 -74 29c-28 0 -51.333 -9.5 -70 -28.5s-28 -42.5 -28 -70.5c0 -16 2 -32 6 -48h-83l-4 53c0 50.667 17.833 91.834 53.5 123.501s79.167 47.5 130.5 47.5c50.667 0 93.334 -17.167 128.001 -51.5
s52 -77.166 52 -128.499c0 -56.667 -18 -101.334 -54 -134.001c-4 -3.33301 -8 -6.5 -12 -9.5s-8.66699 -6 -14 -9s-10 -5.5 -14 -7.5s-9.33301 -4.33301 -16 -7s-11.5 -4.5 -14.5 -5.5l-16.5 -5.5l-15 -5c-2 -0.666992 -7.5 -2.33398 -16.5 -5.00098s-13.833 -4 -14.5 -4
c-51.333 -14 -77 -41.667 -77 -83c0 -22.667 8 -41.667 24 -57s35.333 -23 58 -23c26.667 0 46.834 9.16699 60.501 27.5s20.5 41.166 20.5 68.499zM241.997 99.001c15.333 0 28.5 -5.33301 39.5 -16s16.5 -23.667 16.5 -39s-5.5 -28.666 -16.5 -39.999
s-24.167 -17 -39.5 -17s-28.5 5.66699 -39.5 17s-16.5 24.666 -16.5 39.999s5.5 28.333 16.5 39s24.167 16 39.5 16z" />
    <glyph glyph-name="at" unicode="@" horiz-adv-x="800" 
d="M261 346c0 -35.333 9.49902 -64.167 28.499 -86.5s45.5 -33.5 79.5 -33.5c40.667 0 71.834 14 93.501 42s35.167 62.667 40.5 104c4.66699 40 -2.5 72.5 -21.5 97.5s-45.833 37.5 -80.5 37.5c-38.667 0 -71.667 -16.667 -99 -50s-41 -70.333 -41 -111zM527.999 504.999
l14 61.001h71l-50 -255c-6 -16.667 -8.83301 -35 -8.5 -55s7.83301 -30 22.5 -30c24 0 48.667 20.333 74 61s39.333 84 42 130c4.66699 85.333 -19.5 153 -72.5 203s-121.5 75 -205.5 75c-88.667 0 -162 -30.167 -220 -90.5s-87 -136.166 -87 -227.499
c0 -94.667 31 -171.334 93 -230.001s139 -88 231 -88c84.667 0 148.334 15.333 191.001 46l70 -51c-86.667 -44.667 -176.334 -67 -269.001 -67c-108.667 0 -200.5 37.167 -275.5 111.5s-112.5 167.166 -112.5 278.499c0 110.667 36.833 203.334 110.5 278.001
s164.167 112 271.5 112c92.667 0 171 -28.667 235 -86c74.667 -64.667 112 -141 112 -229c0 -86 -20.667 -156 -62 -210c-22.667 -30 -47.667 -52.167 -75 -66.5s-53.666 -20.833 -78.999 -19.5c-30 1.33301 -48 21.666 -54 60.999c-40.667 -40.667 -86 -61 -136 -61
c-44.667 0 -83.834 18 -117.501 54s-50.5 79 -50.5 129c0 62.667 19 117.667 57 165s87 71 147 71c52.667 0 97 -23.333 133 -70z" />
    <glyph glyph-name="A" unicode="A" horiz-adv-x="699" 
d="M511 214h-322l-91 -214h-92l348 790l339 -790h-93zM478 292l-126 302l-129 -302h255z" />
    <glyph glyph-name="B" unicode="B" horiz-adv-x="568" 
d="M160 350v-272h84c128.667 0 193 46 193 138c0 89.333 -68 134 -204 134h-73zM76 0l0.000976562 753.999h124c75.333 0 136.166 -16 182.499 -48s69.5 -84 69.5 -156c0 -65.333 -24.667 -114.333 -74 -147c44 -10.667 78.833 -34 104.5 -70s38.5 -77 38.5 -123
c0 -71.333 -25 -124.166 -75 -158.499s-115 -51.5 -195 -51.5h-175zM160.001 675.999v-254h32c28 0 51 1.33301 69 4s36 8 54 16s31.333 21 40 39s13 41 13 69c0 52 -14.167 86 -42.5 102s-72.5 24 -132.5 24h-33z" />
    <glyph glyph-name="C" unicode="C" horiz-adv-x="717" 
d="M651 693l0.00195312 -104.001c-64.667 66.667 -141.334 100 -230.001 100c-83.333 0 -154.833 -31 -214.5 -93s-89.5 -135 -89.5 -219s30 -157 90 -219s132 -93 216 -93c85.333 0 161.333 33.333 228 100v-104c-68 -49.333 -143 -74 -225 -74
c-106.667 0 -198.834 37.833 -276.501 113.5s-116.5 166.834 -116.5 273.501c0 108 38.5 200.5 115.5 277.5s169.5 115.5 277.5 115.5c84 0 159 -24.667 225 -74z" />
    <glyph glyph-name="D" unicode="D" horiz-adv-x="678" 
d="M76 0v754h142c62.667 0 117 -6.33301 163 -19s89.667 -36.667 131 -72c83.333 -72 125 -167.667 125 -287c0 -114 -41 -207.667 -123 -281c-42 -37.333 -85.833 -62.5 -131.5 -75.5s-101.167 -19.5 -166.5 -19.5h-140zM160 78h61c51.333 0 95.833 5.5 133.5 16.5
s72.5 31.5 104.5 61.5c62.667 58.667 94 132.334 94 221.001c0 93.333 -32.667 168.666 -98 225.999c-32 28.667 -66.5 48 -103.5 58s-80.5 15 -130.5 15h-61v-598z" />
    <glyph glyph-name="E" unicode="E" horiz-adv-x="534" 
d="M76 0v754h391v-78h-307v-224h298v-78h-298v-296h307v-78h-391z" />
    <glyph glyph-name="F" unicode="F" horiz-adv-x="478" 
d="M419 676h-259v-224h251v-78h-251v-374h-84v754h343v-78z" />
    <glyph glyph-name="G" unicode="G" horiz-adv-x="820" 
d="M463 379l314.001 -0.000976562c1.33301 -57.333 -3.33398 -106.666 -14.001 -147.999s-32 -80.666 -64 -117.999c-34 -40 -75.833 -71 -125.5 -93s-100.834 -33 -153.501 -33c-106 0 -197.167 38.167 -273.5 114.5s-114.5 167.5 -114.5 273.5
c0 108 38.333 200.333 115 277s169.334 115 278.001 115c129.333 0 235.666 -54.333 318.999 -163l-61 -57c-67.333 94.667 -153.666 142 -258.999 142c-85.333 0 -158 -31 -218 -93s-90 -136 -90 -222c0 -82 29.333 -153 88 -213c28.667 -28.667 62 -51.834 100 -69.501
s76 -26.5 114 -26.5c68.667 0 130.667 22.5 186 67.5s83 101.167 83 168.5h-224v78z" />
    <glyph glyph-name="H" unicode="H" horiz-adv-x="714" 
d="M164 448h386v306h84v-754h-84v370h-386v-370h-84v754h84v-306z" />
    <glyph glyph-name="I" unicode="I" horiz-adv-x="239" 
d="M162 754v-754h-84v754h84z" />
    <glyph glyph-name="J" unicode="J" horiz-adv-x="314" 
d="M236 754l-0.00195312 -597.002c0 -26.667 -0.5 -47.5 -1.5 -62.5s-4.33301 -33.333 -10 -55s-14.5 -40.167 -26.5 -55.5c-31.333 -41.333 -74.666 -62 -129.999 -62c-44.667 0 -89.334 18.667 -134.001 56l47 65c30.667 -28.667 60.334 -43 89.001 -43
c13.333 0 24.833 2.33301 34.5 7s17.334 11.834 23.001 21.501s10.334 18.834 14.001 27.501s6.16699 20.167 7.5 34.5s2.16602 25.5 2.49902 33.5s0.5 19 0.5 33v597h84z" />
    <glyph glyph-name="K" unicode="K" horiz-adv-x="611" 
d="M160 431l321 323h113l-354 -351l366 -403h-116l-309 346l-21 -21v-325h-84v754h84v-323z" />
    <glyph glyph-name="L" unicode="L" horiz-adv-x="375" 
d="M160 754v-676h208v-78h-292v754h84z" />
    <glyph glyph-name="M" unicode="M" horiz-adv-x="896" 
d="M21 0l153 797l274 -633l275 633l153 -797h-86l-97 510h-2l-243 -541l-242 541h-2l-97 -510h-86z" />
    <glyph glyph-name="N" unicode="N" horiz-adv-x="834" 
d="M81 0v786l588 -616v584h84v-788l-588 615v-581h-84z" />
    <glyph glyph-name="O" unicode="O" horiz-adv-x="862" 
d="M431 767c108 0 200.5 -38.167 277.5 -114.5s115.5 -168.5 115.5 -276.5s-38.5 -199.833 -115.5 -275.5s-169.5 -113.5 -277.5 -113.5s-200.5 37.833 -277.5 113.5s-115.5 167.5 -115.5 275.5s38.5 200.167 115.5 276.5s169.5 114.5 277.5 114.5zM431 689
c-86 0 -158.998 -30.5 -218.998 -91.5s-90 -134.5 -90 -220.5c0 -85.333 30.167 -158.666 90.5 -219.999s133.166 -92 218.499 -92s158.166 30.667 218.499 92s90.5 134.666 90.5 219.999c0 86 -30 159.5 -90 220.5s-133 91.5 -219 91.5z" />
    <glyph glyph-name="P" unicode="P" horiz-adv-x="503" 
d="M160 330l0.00195312 -330.001h-84v754h124c41.333 0 76.666 -2.33301 105.999 -7s56.333 -15.667 81 -33c27.333 -19.333 48.333 -44.166 63 -74.499s22 -62.833 22 -97.5c0 -68 -24 -122 -72 -162c-40.667 -33.333 -100.334 -50 -179.001 -50h-61zM160.002 675.999
l0.00195312 -268h56c114.667 0 172 45.333 172 136c0 24 -3.83301 44.333 -11.5 61s-17.334 29.5 -29.001 38.5s-26.834 16 -45.501 21s-36 8.16699 -52 9.5s-35.667 2 -59 2h-31z" />
    <glyph glyph-name="Q" unicode="Q" horiz-adv-x="862" 
d="M527 304l130.001 -136.001c55.333 58 83 127.667 83 209c0 86 -30 159.5 -90 220.5s-133 91.5 -219 91.5s-159 -30.5 -219 -91.5s-90 -134.5 -90 -220.5c0 -85.333 30.167 -158.666 90.5 -219.999s133.166 -92 218.499 -92c62.667 0 118.667 18.667 168 56l-182 183h110z
M721.001 -7.00098l-63.001 68c-30.667 -23.333 -66.5 -41.5 -107.5 -54.5s-80.833 -19.5 -119.5 -19.5c-108 0 -200.5 37.833 -277.5 113.5s-115.5 167.5 -115.5 275.5s38.5 200.167 115.5 276.5s169.5 114.5 277.5 114.5c108.667 0 201.334 -38.5 278.001 -115.5
s115 -169.5 115 -277.5c0 -99.333 -36.333 -188 -109 -266l113 -115h-107z" />
    <glyph glyph-name="R" unicode="R" horiz-adv-x="542" 
d="M160 676l-0.000976562 -270.999h26c26.667 0 50.167 1.66699 70.5 5s40.333 9.5 60 18.5s34.667 22.833 45 41.5s15.5 42 15.5 70c0 24 -3.66699 44.5 -11 61.5s-16.333 30.333 -27 40s-25 17.167 -43 22.5s-35.167 8.66602 -51.5 9.99902s-36.166 2 -59.499 2h-25z
M159.999 331.001l-0.000976562 -331h-84v754h109c38.667 0 73.334 -3 104.001 -9s59.667 -16.333 87 -31s48.333 -36.167 63 -64.5s22 -62.833 22 -103.5c0 -58 -17 -106 -51 -144s-80 -59.333 -138 -64l240 -338h-103l-228 331h-21z" />
    <glyph glyph-name="S" unicode="S" horiz-adv-x="559" 
d="M485 650l-67.002 -43c-31.333 54.667 -74.666 82 -129.999 82c-34 0 -63.333 -11 -88 -33s-37 -50 -37 -84c0 -15.333 3.33301 -29.333 10 -42s17 -23.834 31 -33.501s25.833 -17.167 35.5 -22.5s23.5 -12 41.5 -20l50 -22c28.667 -12.667 52.334 -24.5 71.001 -35.5
s37.167 -24.667 55.5 -41s32 -35.833 41 -58.5s13.5 -48.334 13.5 -77.001c0 -65.333 -23 -120.5 -69 -165.5s-102 -67.5 -168 -67.5c-60 0 -111.167 17.833 -153.5 53.5s-69.5 82.834 -81.5 141.501l82 23c5.33301 -39.333 22 -72.5 50 -99.5s61.667 -40.5 101 -40.5
c41.333 0 77.5 14.167 108.5 42.5s46.5 63.166 46.5 104.499c0 16.667 -2.83301 32.167 -8.5 46.5s-12 25.833 -19 34.5s-18.167 18 -33.5 28s-27.333 17.167 -36 21.5s-22.667 10.833 -42 19.5l-46 20c-53.333 24 -94 50 -122 78s-42 66.333 -42 115
c0 56.667 20.667 102.834 62 138.501s91 53.5 149 53.5c42 0 80 -10.167 114 -30.5s61 -49.166 81 -86.499z" />
    <glyph glyph-name="T" unicode="T" horiz-adv-x="470" 
d="M276 676v-676h-84v676h-182v78h450v-78h-184z" />
    <glyph glyph-name="U" unicode="U" horiz-adv-x="685" 
d="M158 754v-449c0 -28.667 0.166992 -49 0.5 -61s3.16602 -29.167 8.49902 -51.5s13.333 -40.833 24 -55.5c16 -22 38.167 -39.5 66.5 -52.5s56.833 -19.5 85.5 -19.5c27.333 0 54.5 6 81.5 18s49.167 28.333 66.5 49c11.333 14 20 31.167 26 51.5s9.33301 37.333 10 51
s1 33.167 1 58.5v6.5v5.5v449h84v-472c0 -48 -4.16699 -87.667 -12.5 -119s-26.166 -61.333 -53.499 -90c-53.333 -57.333 -121 -86 -203 -86c-77.333 0 -142.333 25.667 -195 77c-30 28.667 -49.833 59.667 -59.5 93s-14.5 75 -14.5 125v472h84z" />
    <glyph glyph-name="V" unicode="V" horiz-adv-x="624" 
d="M97 754l215 -575l215 575h91l-306 -799l-306 799h91z" />
    <glyph glyph-name="W" unicode="W" horiz-adv-x="1091" 
d="M104 754l198 -565l244 604l244 -604l198 565h91l-289 -793l-244 607l-244 -607l-289 793h91z" />
    <glyph glyph-name="X" unicode="X" horiz-adv-x="564" 
d="M236 390l-204 364h96l154 -284l154 284h96l-204 -364l223 -390h-96l-173 310l-173 -310h-96z" />
    <glyph glyph-name="Y" unicode="Y" horiz-adv-x="593" 
d="M255 324l-247 430h97l192 -336l192 336h97l-247 -430v-324h-84v324z" />
    <glyph glyph-name="Z" unicode="Z" horiz-adv-x="586" 
d="M153 78h401v-78h-540l411 676h-359v78h499z" />
    <glyph glyph-name="bracketleft" unicode="[" horiz-adv-x="315" 
d="M186 714v-880h108v-74h-190v1028h190v-74h-108z" />
    <glyph glyph-name="backslash" unicode="\" horiz-adv-x="570" 
d="M18 795l66 30l468 -825l-65 -30z" />
    <glyph glyph-name="bracketright" unicode="]" horiz-adv-x="315" 
d="M129 -166v880h-108v74h190v-1028h-190v74h108z" />
    <glyph glyph-name="asciicircum" unicode="^" 
d="M66 322l206 432h72l206 -432h-89l-153 328l-155 -328h-87z" />
    <glyph glyph-name="underscore" unicode="_" horiz-adv-x="500" 
d="M500 -75v-50h-500v50h500z" />
    <glyph glyph-name="grave" unicode="`" horiz-adv-x="358" 
d="M78 706l84 38l119 -164l-50 -28z" />
    <glyph glyph-name="a" unicode="a" horiz-adv-x="577" 
d="M271 409c-44.667 0 -81.333 -16.667 -110 -50s-43 -73 -43 -119c0 -48.667 13.833 -90.667 41.5 -126s65.167 -53 112.5 -53c49.333 0 87.833 17.167 115.5 51.5s41.5 76.5 41.5 126.5c0 48.667 -14.333 89.167 -43 121.5s-67 48.5 -115 48.5zM505.001 470
l0.000976562 -469.999h-80v65h-2c-40.667 -52 -94.667 -78 -162 -78c-66.667 0 -120.834 24.333 -162.501 73s-62.5 106.667 -62.5 174c0 69.333 20.667 128.166 62 176.499s96 72.5 164 72.5c66 0 119.667 -26.667 161 -80h2v67h80z" />
    <glyph glyph-name="b" unicode="b" horiz-adv-x="577" 
d="M301 409c-44.667 0 -81.333 -16.667 -110 -50s-43 -73 -43 -119c0 -48.667 13.833 -90.667 41.5 -126s65.167 -53 112.5 -53c49.333 0 87.833 17.167 115.5 51.5s41.5 76.5 41.5 126.5c0 48.667 -14.333 89.167 -43 121.5s-67 48.5 -115 48.5zM72.001 0v825h80v-422h2
c40.667 53.333 94.334 80 161.001 80c68 0 122.667 -24.167 164 -72.5s62 -106.833 62 -175.5c0 -68 -20.833 -126.333 -62.5 -175s-95.834 -73 -162.501 -73c-69.333 0 -123.333 26 -162 78h-2v-65h-80z" />
    <glyph glyph-name="c" unicode="c" horiz-adv-x="476" 
d="M425 436v-106h-2c-41.333 52.667 -90 79 -146 79c-47.333 0 -86.833 -17 -118.5 -51s-47.5 -75 -47.5 -123s15 -89 45 -123s69 -51 117 -51c60.667 0 111.667 27 153 81h2v-107c-47.333 -32 -97 -48 -149 -48c-71.333 0 -130.833 23.667 -178.5 71
s-71.5 106.333 -71.5 177c0 69.333 24.5 128 73.5 176s108.167 72 177.5 72c52.667 0 101 -15.667 145 -47z" />
    <glyph glyph-name="d" unicode="d" horiz-adv-x="577" 
d="M271 409c-44.667 0 -81.333 -16.667 -110 -50s-43 -73 -43 -119c0 -48.667 13.833 -90.667 41.5 -126s65.167 -53 112.5 -53c49.333 0 87.833 17.167 115.5 51.5s41.5 76.5 41.5 126.5c0 48.667 -14.333 89.167 -43 121.5s-67 48.5 -115 48.5zM425.001 0v65.001h-2
c-40 -52 -94 -78 -162 -78c-66.667 0 -120.834 24.333 -162.501 73s-62.5 106.667 -62.5 174c0 69.333 20.667 128.166 62 176.499s96 72.5 164 72.5c66.667 0 120.334 -26.667 161.001 -80h2v422h80v-825h-80z" />
    <glyph glyph-name="e" unicode="e" horiz-adv-x="519" 
d="M485 218h-369.004c0.666992 -44 15.334 -81.167 44.001 -111.5s65.334 -45.5 110.001 -45.5c59.333 0 107 32.333 143 97l68 -39c-47.333 -88 -119.666 -132 -216.999 -132c-68.667 0 -124.167 23.167 -166.5 69.5s-63.5 103.833 -63.5 172.5
c0 72.667 20.333 133.167 61 181.5s96.334 72.5 167.001 72.5c72.667 0 129 -25.833 169 -77.5s58 -114.167 54 -187.5zM119.996 286l281 -0.000976562c-5.33301 34.667 -21 63.834 -47 87.501s-56.333 35.5 -91 35.5s-66 -12 -94 -36s-44.333 -53 -49 -87z" />
    <glyph glyph-name="f" unicode="f" horiz-adv-x="274" 
d="M163 396v-396.002h-80v396h-44v74h44v187c0 58.667 7 99.334 21 122.001c24.667 39.333 65 59 121 59c16.667 0 35.667 -3.33301 57 -10v-81c-22 7.33301 -40 11 -54 11c-12.667 0 -23.167 -2.16699 -31.5 -6.5s-14.833 -9.16602 -19.5 -14.499s-8 -14.5 -10 -27.5
s-3.16699 -24.333 -3.5 -34s-0.5 -25.167 -0.5 -46.5v-159h119v-74h-119z" />
    <glyph glyph-name="g" unicode="g" horiz-adv-x="580" 
d="M266 409c-44.667 0 -81.333 -16.667 -110 -50s-43 -73 -43 -119c0 -48.667 13.833 -90.667 41.5 -126s65.167 -53 112.5 -53c49.333 0 87.833 17.167 115.5 51.5s41.5 76.5 41.5 126.5c0 48.667 -14.333 89.167 -43 121.5s-67 48.5 -115 48.5zM500.001 470
l-0.000976562 -446.999c0 -32.667 -0.5 -57.5 -1.5 -74.5s-5.16699 -37.667 -12.5 -62s-18.666 -46.166 -33.999 -65.499c-43.333 -55.333 -104 -83 -182 -83c-66.667 0 -121.5 19.667 -164.5 59s-65.167 91.666 -66.5 156.999h80c0.666992 -42.667 15 -77 43 -103
s63.667 -39 107 -39c30 0 55.167 5.16699 75.5 15.5s35.833 25 46.5 44s18.167 39.5 22.5 61.5s6.5 47.333 6.5 76v56h-2c-18.667 -24.667 -42.5 -43.834 -71.5 -57.501s-59.5 -20.5 -91.5 -20.5c-66.667 0 -120.667 24 -162 72s-62 106 -62 174c0 68.667 21 127.5 63 176.5
s96.667 73.5 164 73.5c66.667 0 120 -26.667 160 -80h2v67h80z" />
    <glyph glyph-name="h" unicode="h" horiz-adv-x="528" 
d="M76 825l80 0.000976562v-410l2 -2c34 46.667 78.667 70 134 70c60 0 101.667 -18.333 125 -55s35 -86.334 35 -149.001v-279h-80v265c0 22.667 -0.833008 41.167 -2.5 55.5s-5.5 29 -11.5 44s-16.167 26.167 -30.5 33.5s-32.5 11 -54.5 11c-21.333 0 -39.5 -4 -54.5 -12
s-26.5 -17.667 -34.5 -29s-14.167 -26 -18.5 -44s-7 -34.167 -8 -48.5s-1.5 -31.833 -1.5 -52.5v-223h-80v825z" />
    <glyph glyph-name="i" unicode="i" horiz-adv-x="262" 
d="M171 470v-470h-80v470h80zM131 704c15.333 0 28.666 -5.66699 39.999 -17s17 -24.666 17 -39.999c0 -16 -5.66699 -29.5 -17 -40.5s-24.666 -16.5 -39.999 -16.5s-28.666 5.5 -39.999 16.5s-17 24.5 -17 40.5c0 15.333 5.66699 28.666 17 39.999s24.666 17 39.999 17z
" />
    <glyph glyph-name="j" unicode="j" horiz-adv-x="262" 
d="M171 470v-734h-80v734h80zM131 704c15.333 0 28.666 -5.66699 39.999 -17s17 -24.666 17 -39.999c0 -16 -5.66699 -29.5 -17 -40.5s-24.666 -16.5 -39.999 -16.5s-28.666 5.5 -39.999 16.5s-17 24.5 -17 40.5c0 15.333 5.66699 28.666 17 39.999s24.666 17 39.999 17z
" />
    <glyph glyph-name="k" unicode="k" horiz-adv-x="470" 
d="M152 825v-529l171 174h107l-201 -200l239 -270h-106l-189 214l-21 -21v-193h-80v825h80z" />
    <glyph glyph-name="l" unicode="l" horiz-adv-x="227" 
d="M154 825v-825h-80v825h80z" />
    <glyph glyph-name="m" unicode="m" horiz-adv-x="768" 
d="M156 470l-0.00585938 -51h2c27.333 42.667 65 64 113 64c28 0 53.5 -7 76.5 -21s40.833 -33 53.5 -57c13.333 25.333 32.833 44.666 58.5 57.999s53.167 20 82.5 20c100 0 150 -65.667 150 -197v-286h-80v273c0 19.333 -0.666992 35.333 -2 48
s-4.66602 26.667 -9.99902 42s-14.166 26.833 -26.499 34.5s-28.166 11.5 -47.499 11.5c-22 0 -40.167 -4.66699 -54.5 -14s-24.666 -22.666 -30.999 -39.999s-10.666 -34 -12.999 -50s-3.5 -34.667 -3.5 -56v-249h-80v267c0 94.667 -28 142 -84 142
c-22 0 -40.5 -5 -55.5 -15s-25.667 -24 -32 -42s-10.666 -35.333 -12.999 -52s-3.5 -35.667 -3.5 -57v-243h-80v470h80z" />
    <glyph glyph-name="n" unicode="n" horiz-adv-x="528" 
d="M156 470v-56.999h2c34 46.667 78.667 70 134 70c60 0 101.667 -18.333 125 -55s35 -86.334 35 -149.001v-279h-80v265c0 22.667 -0.833008 41.167 -2.5 55.5s-5.5 29 -11.5 44s-16.167 26.167 -30.5 33.5s-32.5 11 -54.5 11c-21.333 0 -39.5 -4 -54.5 -12
s-26.5 -17.667 -34.5 -29s-14.167 -26 -18.5 -44s-7 -34.167 -8 -48.5s-1.5 -31.833 -1.5 -52.5v-223h-80v470h80z" />
    <glyph glyph-name="o" unicode="o" horiz-adv-x="562" 
d="M281 -13c-68.667 0 -127 24 -175 72s-72 106.333 -72 175c0 69.333 24 128.166 72 176.499s106.333 72.5 175 72.5s127 -24.167 175 -72.5s72 -107.166 72 -176.499c0 -68.667 -24 -127 -72 -175s-106.333 -72 -175 -72zM281 409c-48.667 0 -88.667 -16.833 -120 -50.5
s-47 -74.834 -47 -123.501s15.667 -89.834 47 -123.501s71.333 -50.5 120 -50.5s88.667 16.833 120 50.5s47 74.834 47 123.501s-15.667 89.834 -47 123.501s-71.333 50.5 -120 50.5z" />
    <glyph glyph-name="p" unicode="p" horiz-adv-x="577" 
d="M301 409c-44.667 0 -81.333 -16.667 -110 -50s-43 -73 -43 -119c0 -48.667 13.833 -90.667 41.5 -126s65.167 -53 112.5 -53c49.333 0 87.833 17.167 115.5 51.5s41.5 76.5 41.5 126.5c0 48.667 -14.333 89.167 -43 121.5s-67 48.5 -115 48.5zM152.001 470
l-0.000976562 -67h2c40 53.333 94 80 162 80c66.667 0 120.834 -24.5 162.501 -73.5s62.5 -107.5 62.5 -175.5c0 -69.333 -20.5 -127.833 -61.5 -175.5s-95.833 -71.5 -164.5 -71.5c-68 0 -121.667 26.333 -161 79h-2v-330h-80v734h80z" />
    <glyph glyph-name="q" unicode="q" horiz-adv-x="577" 
d="M271 409c-44.667 0 -81.333 -16.667 -110 -50s-43 -73 -43 -119c0 -48.667 13.833 -90.667 41.5 -126s65.167 -53 112.5 -53c49.333 0 87.833 17.167 115.5 51.5s41.5 76.5 41.5 126.5c0 48.667 -14.333 89.167 -43 121.5s-67 48.5 -115 48.5zM505.001 470
l0.000976562 -734.001h-80v330h-2c-39.333 -52.667 -93 -79 -161 -79c-68.667 0 -123.5 23.833 -164.5 71.5s-61.5 105.834 -61.5 174.501c0 68 20.667 126.667 62 176s95.666 74 162.999 74c68 0 122 -26.667 162 -80h2v67h80z" />
    <glyph glyph-name="r" unicode="r" horiz-adv-x="335" 
d="M152 470v-51h2c16.667 22 32.167 38.167 46.5 48.5s33.5 15.5 57.5 15.5c22 0 46 -7.33301 72 -22l-38 -73c-20.667 14 -36.667 21 -48 21c-61.333 0 -92 -58 -92 -174v-235h-80v470h80z" />
    <glyph glyph-name="s" unicode="s" horiz-adv-x="399" 
d="M333 396l-66.999 -34.9971c-6 13.333 -14.667 24.666 -26 33.999s-24 14 -38 14c-14.667 0 -28 -5 -40 -15s-18 -22.333 -18 -37c0 -6 0.833008 -11.5 2.5 -16.5s5 -9.83301 10 -14.5l13 -12c3.66699 -3.33301 9.83398 -7 18.501 -11s15 -7 19 -9s11.667 -5.33301 23 -10
s19 -7.66699 23 -9c33.333 -14 59.833 -31 79.5 -51s29.5 -48 29.5 -84c0 -44 -15.5 -80.5 -46.5 -109.5s-68.5 -43.5 -112.5 -43.5c-39.333 0 -73.666 10.5 -102.999 31.5s-50.333 50.167 -63 87.5l71 30c11.333 -24.667 24 -43.334 38 -56.001s33.333 -19 58 -19
c22 0 40.167 6.66699 54.5 20s21.5 30.666 21.5 51.999c0 19.333 -7.33301 35.333 -22 48s-32.334 23.167 -53.001 31.5s-41.334 17.333 -62.001 27s-38.334 23.667 -53.001 42s-22 41.166 -22 68.499c0 38.667 13.667 70.5 41 95.5s60.333 37.5 99 37.5
c26.667 0 51.5 -8.16699 74.5 -24.5s39.833 -37.166 50.5 -62.499z" />
    <glyph glyph-name="t" unicode="t" horiz-adv-x="240" 
d="M160 396v-396h-80v396h-49v74h49v169h80v-169h84v-74h-84z" />
    <glyph glyph-name="u" unicode="u" horiz-adv-x="512" 
d="M150 470l0.00390625 -262c0 -18 0.5 -33.333 1.5 -46s3.66699 -25.834 8 -39.501s10.166 -24.667 17.499 -33s17.666 -15.166 30.999 -20.499s29.333 -8 48 -8s34.667 2.66699 48 8s23.666 12.166 30.999 20.499s13.166 19.333 17.499 33s7 26.834 8 39.501
s1.5 28 1.5 46v262h80v-271c0 -141.333 -62 -212 -186 -212s-186 70.667 -186 212v271h80z" />
    <glyph glyph-name="v" unicode="v" horiz-adv-x="463" 
d="M92 470l140 -316l140 316h90l-230 -501l-231 501h91z" />
    <glyph glyph-name="w" unicode="w" horiz-adv-x="760" 
d="M94 470l139 -318l146 354l147 -354l140 318h91l-233 -503l-145 350l-145 -350l-231 503h91z" />
    <glyph glyph-name="x" unicode="x" horiz-adv-x="498" 
d="M201 250l-171 220h98l123 -160l123 160h100l-172 -220l195 -250h-97l-149 191l-150 -191h-100z" />
    <glyph glyph-name="y" unicode="y" horiz-adv-x="498" 
d="M214 44l-216 426h93l166 -337l152 337h91l-347 -734h-91z" />
    <glyph glyph-name="z" unicode="z" horiz-adv-x="519" 
d="M172 74h324v-74h-486l339 396h-276v74h437z" />
    <glyph glyph-name="braceleft" unicode="{" horiz-adv-x="334" 
d="M51 242v64.0039c31.333 10 51.666 26.833 60.999 50.5s14 60.167 14 109.5v187c0 37.333 9.83301 69.166 29.5 95.499s38.167 39.5 55.5 39.5h73v-74h-40c-8.66699 0 -15.5 -1.5 -20.5 -4.5s-8.66699 -8.66699 -11 -17s-3.66602 -15.833 -3.99902 -22.5
s-0.5 -17.334 -0.5 -32.001v-189c0 -27.333 -3.16699 -52.333 -9.5 -75s-14.333 -40.834 -24 -54.501s-17.834 -23.834 -24.501 -30.501s-12.667 -11.667 -18 -15c8 -4.66699 16.833 -12.167 26.5 -22.5s20.334 -29.666 32.001 -57.999s17.5 -60.166 17.5 -95.499v-188
c0 -14.667 0.166992 -25.334 0.5 -32.001s1.66602 -14.167 3.99902 -22.5s6 -14 11 -17s11.833 -4.5 20.5 -4.5h40v-74h-73c-17.333 0 -35.833 13.167 -55.5 39.5s-29.5 58.166 -29.5 95.499v186c0 49.333 -4.66699 86 -14 110s-29.666 41 -60.999 51z" />
    <glyph glyph-name="bar" unicode="|" horiz-adv-x="570" 
d="M324 786v-1000h-78v1000h78z" />
    <glyph glyph-name="braceright" unicode="}" horiz-adv-x="334" 
d="M283 306v-64.0049c-31.333 -10 -51.666 -27 -60.999 -51s-14 -60.667 -14 -110v-186c0 -37.333 -9.83301 -69.166 -29.5 -95.499s-38.167 -39.5 -55.5 -39.5h-73v74h40c8.66699 0 15.5 1.5 20.5 4.5s8.66699 8.66699 11 17s3.66602 15.833 3.99902 22.5
s0.5 17.334 0.5 32.001v188c0 27.333 3.16699 52.5 9.5 75.5s14.333 41.333 24 55s17.834 23.834 24.501 30.501s12.667 11.667 18 15c-8 4.66699 -16.833 12.167 -26.5 22.5s-20.334 29.5 -32.001 57.5s-17.5 59.667 -17.5 95v189c0 14.667 -0.166992 25.334 -0.5 32.001
s-1.66602 14.167 -3.99902 22.5s-6 14 -11 17s-11.833 4.5 -20.5 4.5h-40v74h73c17.333 0 35.833 -13.167 55.5 -39.5s29.5 -58.166 29.5 -95.499v-187c0 -49.333 4.66699 -85.833 14 -109.5s29.666 -40.5 60.999 -50.5z" />
    <glyph glyph-name="asciitilde" unicode="~" 
d="M135 172l-69.001 28c35.333 98 81.666 147 138.999 147c27.333 0 63.666 -15 108.999 -45l25.5 -17.5l26.5 -18c6.66699 -4.33301 14.334 -8.5 23.001 -12.5s16 -6 22 -6c13.333 0 26.333 9.16699 39 27.5s23.334 41.5 32.001 69.5l68 -28
c-33.333 -98 -79.666 -147 -138.999 -147c-24 0 -58 14.667 -102 44l-18 12l-17.5 11.5l-15 9.5c-6.33301 4 -11.5 7 -15.5 9s-8.33301 4 -13 6s-9 3.5 -13 4.5s-8 1.5 -12 1.5c-26.667 0 -50 -32 -70 -96z" />
    <glyph glyph-name="uni00A0" unicode="&#xa0;" horiz-adv-x="308" 
 />
    <glyph glyph-name="exclamdown" unicode="&#xa1;" horiz-adv-x="338" 
d="M169 483c15.333 0 28.5 -5.33301 39.5 -16s16.5 -23.667 16.5 -39s-5.5 -28.666 -16.5 -39.999s-24.167 -17 -39.5 -17s-28.5 5.66699 -39.5 17s-16.5 24.666 -16.5 39.999s5.5 28.333 16.5 39s24.167 16 39.5 16zM210 317v-601h-82v601h82z" />
    <glyph glyph-name="cent" unicode="&#xa2;" 
d="M491 587l0.00195312 -106h-2c-34.667 44 -74 69.333 -118 76v-344c46.667 6.66699 86.667 33.334 120 80.001h2v-107c-43.333 -28.667 -84 -44.334 -122 -47.001v-112h-66v113c-58.667 6.66699 -108.334 33.5 -149.001 80.5s-61 100.167 -61 159.5
c0 62.667 19.667 118 59 166s89.666 75.667 150.999 83v106h66v-104c43.333 -4 83.333 -18.667 120 -44zM305.002 214v341c-38 -7.33301 -68.833 -27.5 -92.5 -60.5s-35.5 -69.167 -35.5 -108.5c0 -41.333 11.667 -78.333 35 -111s54.333 -53 93 -61z" />
    <glyph glyph-name="sterling" unicode="&#xa3;" 
d="M208 268l-126.996 -0.00292969v64h100l-19 37c-2.66699 4.66699 -7.83398 14.334 -15.501 29.001s-12.834 24.834 -15.501 30.501s-6.66699 15 -12 28s-9.16602 23.667 -11.499 32s-4.5 18.333 -6.5 30s-3 23.167 -3 34.5c0 60.667 21.833 111.5 65.5 152.5
s96.167 61.5 157.5 61.5c64.667 0 117.167 -21.5 157.5 -64.5s60.833 -96.833 61.5 -161.5l-82 -22c-0.666992 48 -11.834 88 -33.501 120s-55.5 48 -101.5 48c-38.667 0 -71.5 -13 -98.5 -39s-40.5 -58.333 -40.5 -97c0 -23.333 4.83301 -47.333 14.5 -72
s23 -51.667 40 -81s28.5 -51.333 34.5 -66h142v-64h-120c4.66699 -17.333 7 -32.333 7 -45c0 -34 -11 -70 -33 -108l5 -2c1.33301 -0.666992 15.166 -5.66699 41.499 -15s47.666 -16.333 63.999 -21s29.5 -7 39.5 -7c20 0 36.833 6.83301 50.5 20.5
s27.167 31.834 40.5 54.501l68 -41c-15.333 -33.333 -36.333 -61 -63 -83s-57 -33 -91 -33c-27.333 0 -68 9.66699 -122 29c-55.333 19.333 -92 29 -110 29c-36 0 -66 -20.333 -90 -61l-65 44c39.333 64 88 96.333 146 97c21.333 30 32 61 32 93c0 18 -2.33301 34.333 -7 49
z" />
    <glyph glyph-name="currency" unicode="&#xa4;" 
d="M66 498l36 36l42 -42c53.333 38.667 108 58 164 58s110.667 -19.333 164 -58l42 42l36 -36l-40 -40c35.333 -54.667 53 -107.334 53 -158.001s-17.667 -103.334 -53 -158.001l40 -40l-36 -36l-42 42c-53.333 -38.667 -108 -58 -164 -58s-110.667 19.333 -164 58l-42 -42
l-36 36l40 40c-35.333 54.667 -53 107.334 -53 158.001s17.667 103.334 53 158.001zM308 486c-54.667 -1.33301 -100.332 -19.5 -136.999 -54.5s-54.667 -78.833 -54 -131.5c1.33301 -50.667 20.5 -94.334 57.5 -131.001s81.5 -55 133.5 -55s96.5 18.333 133.5 55
s56.167 80.334 57.5 131.001c0.666992 52.667 -17.333 96.5 -54 131.5s-82.334 53.167 -137.001 54.5z" />
    <glyph glyph-name="yen" unicode="&#xa5;" 
d="M266 0v256h-237v64h237l-55 100h-182v64h145l-155 270h97l192 -334l192 334h97l-155 -270h145v-64h-182l-55 -100h237v-64h-237v-256h-84z" />
    <glyph glyph-name="brokenbar" unicode="&#xa6;" horiz-adv-x="570" 
d="M324 161v-250h-78v250h78zM324 661v-250h-78v250h78z" />
    <glyph glyph-name="section" unicode="&#xa7;" horiz-adv-x="592" 
d="M296 402c-30.667 0 -56.667 -10.667 -78 -32s-32 -47.333 -32 -78s10.667 -56.834 32 -78.501s47.333 -32.5 78 -32.5s56.834 10.833 78.501 32.5s32.5 47.834 32.5 78.501s-10.833 56.667 -32.5 78s-47.834 32 -78.501 32zM105 4l81.0039 0.00195312
c0 -35.333 8.33301 -63.5 25 -84.5s42.334 -31.5 77.001 -31.5c32.667 0 58 8.66699 76 26s27 42 27 74c0 17.333 -2.83301 32.5 -8.5 45.5s-15.334 24 -29.001 33s-25.167 15.667 -34.5 20s-24 10.166 -44 17.499c-2.66699 1.33301 -11.5 5 -26.5 11
s-25.833 10.5 -32.5 13.5s-15.334 7.33301 -26.001 13s-19.667 11.5 -27 17.5c-40.667 32 -61 76 -61 132c0 37.333 9.16699 70.333 27.5 99s44.166 50 77.499 64c-58.667 29.333 -88 76.333 -88 141c0 50.667 18.5 92 55.5 124s81.5 48 133.5 48c27.333 0 54.333 -6 81 -18
s47.334 -28.333 62.001 -49c22.667 -32 34.667 -75 36 -129h-80c-4 79.333 -37.333 119 -100 119c-30.667 0 -56 -9.16699 -76 -27.5s-30 -42.833 -30 -73.5c0 -8.66699 0.666992 -16.667 2 -24s4 -14 8 -20l11 -16c3.33301 -4.66699 8.66602 -9.33398 15.999 -14.001
s13 -8.5 17 -11.5s11 -6.5 21 -10.5l21.5 -8.5c4.33301 -1.66699 12.5 -4.5 24.5 -8.5l24 -8c21.333 -8 39.166 -15.833 53.499 -23.5s29.166 -18.167 44.499 -31.5s26.833 -30.333 34.5 -51s11.5 -45 11.5 -73c0 -70.667 -35 -124 -105 -160c58.667 -30 88 -78.667 88 -146
c0 -52.667 -17.5 -94.5 -52.5 -125.5s-79.5 -46.5 -133.5 -46.5c-116 0 -176.667 64.333 -182 193z" />
    <glyph glyph-name="dieresis" unicode="&#xa8;" horiz-adv-x="467" 
d="M135 705c15.333 0 28.166 -5.16699 38.499 -15.5s15.5 -23.166 15.5 -38.499s-5.16699 -28.166 -15.5 -38.499s-23.166 -15.5 -38.499 -15.5s-28.166 5.16699 -38.499 15.5s-15.5 23.166 -15.5 38.499s5.16699 28.166 15.5 38.499s23.166 15.5 38.499 15.5zM332 705
c14.667 0 27.334 -5.16699 38.001 -15.5s16 -23.166 16 -38.499s-5.33301 -28.166 -16 -38.499s-23.334 -15.5 -38.001 -15.5s-27.334 5.16699 -38.001 15.5s-16 23.166 -16 38.499s5.33301 28.166 16 38.499s23.334 15.5 38.001 15.5z" />
    <glyph glyph-name="copyright" unicode="&#xa9;" horiz-adv-x="800" 
d="M400 -13c-109.333 0 -202 37.833 -278 113.5s-114 167.834 -114 276.501s38 200.834 114 276.501s168.667 113.5 278 113.5s202 -37.833 278 -113.5s114 -167.834 114 -276.501s-38 -200.834 -114 -276.501s-168.667 -113.5 -278 -113.5zM400 47
c90 0 167.833 32.167 233.5 96.5s98.5 142.166 98.5 233.499s-32.833 169.166 -98.5 233.499s-143.5 96.5 -233.5 96.5s-167.833 -32.167 -233.5 -96.5s-98.5 -142.166 -98.5 -233.499s32.833 -169.166 98.5 -233.499s143.5 -96.5 233.5 -96.5zM599 457h-61.001
c-6 27.333 -20 48.833 -42 64.5s-49.333 23.5 -82 23.5c-50.667 0 -89.334 -16.333 -116.001 -49s-40 -70.667 -40 -114c0 -47.333 14.167 -86.833 42.5 -118.5s66.833 -47.5 115.5 -47.5c66.667 0 107.334 30.333 122.001 91h61c-6 -46 -26.333 -82.667 -61 -110
s-75.334 -41 -122.001 -41c-64.667 0 -117.167 21.5 -157.5 64.5s-60.5 96.167 -60.5 159.5c0 66 19.667 120 59 162s92 63 158 63c46.667 0 86.834 -13.167 120.501 -39.5s54.834 -62.5 63.501 -108.5z" />
    <glyph glyph-name="ordfeminine" unicode="&#xaa;" horiz-adv-x="346" 
d="M174 723c-29.333 0 -53.501 -10.1689 -72.501 -30.502s-28.5 -44.166 -28.5 -71.499c0 -29.333 9.16699 -54.666 27.5 -75.999s42.833 -32 73.5 -32c32 0 57 10.333 75 31s27 46 27 76c0 29.333 -9.16699 53.833 -27.5 73.5s-43.166 29.5 -74.499 29.5zM325.999 758.998
l-0.00195312 -282h-52v39h-2c-26 -31.333 -61 -47 -105 -47c-43.333 0 -78.5 14.5 -105.5 43.5s-40.5 63.833 -40.5 104.5c0 42 13.333 77.5 40 106.5s62.334 43.5 107.001 43.5c42.667 0 77.334 -16 104.001 -48h2v40h52z" />
    <glyph glyph-name="guillemotleft" unicode="&#xab;" horiz-adv-x="500" 
d="M297 240l135 -166l-53 -41l-168 207l168 213l53 -42zM127 240l135 -166l-53 -41l-168 207l168 213l53 -42z" />
    <glyph glyph-name="logicalnot" unicode="&#xac;" 
d="M472 103v192h-406v78h484v-270h-78z" />
    <glyph glyph-name="uni00AD" unicode="&#xad;" horiz-adv-x="208" 
d="M2 278h205v-74h-205v74z" />
    <glyph glyph-name="registered" unicode="&#xae;" horiz-adv-x="800" 
d="M400 -13c-109.333 0 -202 37.833 -278 113.5s-114 167.834 -114 276.501s38 200.834 114 276.501s168.667 113.5 278 113.5s202 -37.833 278 -113.5s114 -167.834 114 -276.501s-38 -200.834 -114 -276.501s-168.667 -113.5 -278 -113.5zM400 47
c90 0 167.833 32.167 233.5 96.5s98.5 142.166 98.5 233.499s-32.833 169.166 -98.5 233.499s-143.5 96.5 -233.5 96.5s-167.833 -32.167 -233.5 -96.5s-98.5 -142.166 -98.5 -233.499s32.833 -169.166 98.5 -233.499s143.5 -96.5 233.5 -96.5zM457 363l129 -197h-72
l-128 197h-72v-197h-60v427h186c101.333 0 152 -37.667 152 -113s-45 -114.333 -135 -117zM314 423h72c2.66699 0 10.667 -0.166992 24 -0.5s22.833 -0.333008 28.5 0s14.5 1 26.5 2s21 2.83301 27 5.5s12.667 6 20 10s12.5 9.5 15.5 16.5s4.5 15.167 4.5 24.5
c0 34.667 -34.667 52 -104 52h-114v-110z" />
    <glyph glyph-name="macron" unicode="&#xaf;" horiz-adv-x="499" 
d="M79 682h342v-68h-342v68z" />
    <glyph glyph-name="degree" unicode="&#xb0;" horiz-adv-x="400" 
d="M350 617c0 -41.333 -14.668 -76.666 -44.001 -105.999s-64.666 -44 -105.999 -44s-76.666 14.667 -105.999 44s-44 64.666 -44 105.999c-0.666992 40.667 13.833 75.834 43.5 105.501s65.167 44.5 106.5 44.5s76.666 -14.833 105.999 -44.5s44 -64.834 44 -105.501z
M301.999 617c0 28 -10.001 52 -30.001 72s-44.333 30 -73 30c-28 0 -52 -10 -72 -30s-29.667 -44 -29 -72c0 -28.667 9.83301 -52.834 29.5 -72.501s43.834 -29.5 72.501 -29.5c28 0 52 9.83301 72 29.5s30 43.834 30 72.501z" />
    <glyph glyph-name="plusminus" unicode="&#xb1;" 
d="M269 498h78v-153h203v-78h-203v-153h-78v153h-203v78h203v153zM66 0v78h484v-78h-484z" />
    <glyph glyph-name="twosuperior" unicode="&#xb2;" horiz-adv-x="369" 
d="M146 359h197v-52h-317l229 250c18.667 20.667 28 46 28 76c0 24.667 -8.66699 44.5 -26 59.5s-39.333 22.5 -66 22.5c-29.333 0 -52.166 -8 -68.499 -24s-24.5 -37.333 -24.5 -64h-60c1.33301 40 16.166 73.333 44.499 100s63.833 40 106.5 40
c44 0 80.667 -12.5 110 -37.5s44 -57.167 44 -96.5c0 -40 -10.667 -71.667 -32 -95z" />
    <glyph glyph-name="threesuperior" unicode="&#xb3;" horiz-adv-x="369" 
d="M175 519l0.000976562 52c26.667 0 48.5 6.16699 65.5 18.5s25.5 29.5 25.5 51.5c0 22.667 -8.16699 40.667 -24.5 54s-34.833 20 -55.5 20c-44.667 0 -69.667 -22.333 -75 -67h-60c4 36.667 17.667 65.667 41 87s55 32 95 32s73.167 -11.5 99.5 -34.5
s39.5 -52.833 39.5 -89.5c0 -20.667 -5.66699 -40 -17 -58s-26.666 -31.667 -45.999 -41c23.333 -9.33301 40.833 -24 52.5 -44s17.5 -42.333 17.5 -67c0 -42 -14 -74.833 -42 -98.5s-64.667 -35.5 -110 -35.5c-40.667 0 -74.834 11.667 -102.501 35
s-41.834 53.333 -42.501 90h60c0 -22.667 8.16699 -40.5 24.5 -53.5s37.166 -19.5 62.499 -19.5c26.667 0 48.334 8 65.001 24s25 36.333 25 61c0 26 -9 46.667 -27 62s-41.667 22.333 -71 21z" />
    <glyph glyph-name="acute" unicode="&#xb4;" horiz-adv-x="358" 
d="M197 744l84 -38l-153 -154l-50 28z" />
    <glyph glyph-name="mu" unicode="&#xb5;" horiz-adv-x="512" 
d="M150 470l0.00390625 -262c0 -18 0.5 -33.333 1.5 -46s3.66699 -25.834 8 -39.501s10.166 -24.667 17.499 -33s17.666 -15.166 30.999 -20.499s29.333 -8 48 -8s34.667 2.66699 48 8s23.666 12.166 30.999 20.499s13.166 19.333 17.499 33s7 26.834 8 39.501
s1.5 28 1.5 46v262h80v-271c0 -141.333 -62 -212 -186 -212c-38 0 -73.333 15.667 -106 47v-298h-80v734h80z" />
    <glyph glyph-name="paragraph" unicode="&#xb6;" horiz-adv-x="592" 
d="M534 754l0.00292969 -65h-58v-842h-65v842h-81v-842h-65v436c-57.333 0 -104.833 19 -142.5 57s-58.834 90.333 -63.501 157c-4.66699 63.333 14.166 122 56.499 176s95.166 81 158.499 81h260z" />
    <glyph glyph-name="periodcentered" unicode="&#xb7;" horiz-adv-x="308" 
d="M154 311c15.333 0 28.5 -5.33301 39.5 -16s16.5 -23.667 16.5 -39s-5.5 -28.666 -16.5 -39.999s-24.167 -17 -39.5 -17s-28.5 5.66699 -39.5 17s-16.5 24.666 -16.5 39.999s5.5 28.333 16.5 39s24.167 16 39.5 16z" />
    <glyph glyph-name="cedilla" unicode="&#xb8;" horiz-adv-x="325" 
d="M248 -53l-114 -146l-56 28l96 148z" />
    <glyph glyph-name="onesuperior" unicode="&#xb9;" horiz-adv-x="369" 
d="M195 707h-81l29 52h112v-452h-60v400z" />
    <glyph glyph-name="ordmasculine" unicode="&#xba;" horiz-adv-x="337" 
d="M169 469c-44.667 0 -82.667 14.333 -114 43s-47 63.667 -47 105s15.667 76.666 47 105.999s69.333 44 114 44s82.667 -14.667 114 -44s47 -64.666 47 -105.999s-15.667 -76.333 -47 -105s-69.333 -43 -114 -43zM169 723c-31.333 0 -57.333 -10.167 -78 -30.5
s-31 -45.166 -31 -74.499s10.333 -54.166 31 -74.499s46.667 -30.5 78 -30.5s57.333 10.167 78 30.5s31 45.166 31 74.499s-10.333 54.166 -31 74.499s-46.667 30.5 -78 30.5z" />
    <glyph glyph-name="guillemotright" unicode="&#xbb;" horiz-adv-x="500" 
d="M68 74l135 166l-135 171l53 42l168 -213l-168 -207zM238 74l135 166l-135 171l53 42l168 -213l-168 -207z" />
    <glyph glyph-name="onequarter" unicode="&#xbc;" horiz-adv-x="924" 
d="M764 125h60v-52h-60v-73h-60v73h-245l304 405h1v-353zM704 125v190h-2l-142 -190h144zM181 707h-81l29 52h112v-452h-60v400zM648 767l44 -24l-439 -756l-44 24z" />
    <glyph glyph-name="onehalf" unicode="&#xbd;" horiz-adv-x="924" 
d="M181 707h-81l29 52h112v-452h-60v400zM627 52h197v-52h-317l229 250c18.667 20.667 28 46 28 76c0 24.667 -8.66699 44.5 -26 59.5s-39.333 22.5 -66 22.5c-29.333 0 -52.166 -8 -68.499 -24s-24.5 -37.333 -24.5 -64h-60c1.33301 40 16.166 73.333 44.499 100
s63.833 40 106.5 40c44 0 80.667 -12.5 110 -37.5s44 -57.167 44 -96.5c0 -40 -10.667 -71.667 -32 -95zM603 767l44 -24l-439 -756l-44 24z" />
    <glyph glyph-name="threequarters" unicode="&#xbe;" horiz-adv-x="924" 
d="M784 125h60v-52h-60v-73h-60v73h-245l304 405h1v-353zM724 125v190h-2l-142 -190h144zM706 767l44 -24l-439 -756l-44 24zM219 519l0.000976562 52c26.667 0 48.5 6.16699 65.5 18.5s25.5 29.5 25.5 51.5c0 22.667 -8.16699 40.667 -24.5 54s-34.833 20 -55.5 20
c-44.667 0 -69.667 -22.333 -75 -67h-60c4 36.667 17.667 65.667 41 87s55 32 95 32s73.167 -11.5 99.5 -34.5s39.5 -52.833 39.5 -89.5c0 -20.667 -5.66699 -40 -17 -58s-26.666 -31.667 -45.999 -41c23.333 -9.33301 40.833 -24 52.5 -44s17.5 -42.333 17.5 -67
c0 -42 -14 -74.833 -42 -98.5s-64.667 -35.5 -110 -35.5c-40.667 0 -74.834 11.667 -102.501 35s-41.834 53.333 -42.501 90h60c0 -22.667 8.16699 -40.5 24.5 -53.5s37.166 -19.5 62.499 -19.5c26.667 0 48.334 8 65.001 24s25 36.333 25 61c0 26 -9 46.667 -27 62
s-41.667 22.333 -71 21z" />
    <glyph glyph-name="questiondown" unicode="&#xbf;" horiz-adv-x="488" 
d="M163 146h-80.9971c-1.33301 48.667 13.5 89.667 44.5 123s70.5 50 118.5 50c46.667 0 85.5 -15.667 116.5 -47s46.5 -70 46.5 -116c0 -41.333 -12 -73.666 -36 -96.999s-57.667 -42 -101 -56c-46.667 -14.667 -76.334 -26.334 -89.001 -35.001
c-25.333 -18 -38 -44.667 -38 -80c0 -30.667 9.66699 -55.667 29 -75s44 -29 74 -29c28 0 51.333 9.5 70 28.5s28 42.5 28 70.5c0 16 -2 32 -6 48h83l4 -53c0 -50.667 -17.833 -91.834 -53.5 -123.501s-79.167 -47.5 -130.5 -47.5c-50.667 0 -93.334 17.167 -128.001 51.5
s-52 77.166 -52 128.499c0 56 18 100.667 54 134c4 3.33301 8 6.5 12 9.5s8.66699 6 14 9s10 5.5 14 7.5s9.33301 4.33301 16 7s11.5 4.5 14.5 5.5l16.5 5.5l15 5c2 0.666992 7.5 2.33398 16.5 5.00098s13.833 4 14.5 4c51.333 14 77 41.667 77 83
c0 22.667 -8 41.667 -24 57s-35.333 23 -58 23c-26.667 0 -46.834 -9.16699 -60.501 -27.5s-20.5 -41.166 -20.5 -68.499zM246.003 483c15.333 0 28.5 -5.5 39.5 -16.5s16.5 -24.167 16.5 -39.5s-5.5 -28.5 -16.5 -39.5s-24.167 -16.5 -39.5 -16.5s-28.5 5.5 -39.5 16.5
s-16.5 24.167 -16.5 39.5s5.5 28.5 16.5 39.5s24.167 16.5 39.5 16.5z" />
    <glyph glyph-name="Agrave" unicode="&#xc0;" horiz-adv-x="699" 
d="M511 214h-322l-91 -214h-92l348 790l339 -790h-93zM478 292l-126 302l-129 -302h255zM209 965l84 38l119 -164l-50 -28z" />
    <glyph glyph-name="Aacute" unicode="&#xc1;" horiz-adv-x="699" 
d="M511 214h-322l-91 -214h-92l348 790l339 -790h-93zM478 292l-126 302l-129 -302h255zM408 1003l84 -38l-153 -154l-50 28z" />
    <glyph glyph-name="Acircumflex" unicode="&#xc2;" horiz-adv-x="699" 
d="M511 214h-322l-91 -214h-92l348 790l339 -790h-93zM478 292l-126 302l-129 -302h255zM193 863l156 133l158 -133l-58 -45l-100 85l-99 -85z" />
    <glyph glyph-name="Atilde" unicode="&#xc3;" horiz-adv-x="699" 
d="M511 214h-322l-91 -214h-92l348 790l339 -790h-93zM478 292l-126 302l-129 -302h255zM224 847l-49.001 38.999c30 52.667 64 79 102 79c23.333 0 50.333 -7.66699 81 -23c34.667 -15.333 56 -23 64 -23c20 0 38.667 16 56 48l47 -38
c-9.33301 -23.333 -23.5 -42.666 -42.5 -57.999s-40.167 -23 -63.5 -23c-18 0 -43 7.66699 -75 23c-33.333 14.667 -56.666 22 -69.999 22c-12.667 0 -22.5 -4 -29.5 -12s-13.833 -19.333 -20.5 -34z" />
    <glyph glyph-name="Adieresis" unicode="&#xc4;" horiz-adv-x="699" 
d="M511 214h-322l-91 -214h-92l348 790l339 -790h-93zM478 292l-126 302l-129 -302h255zM251 964c15.333 0 28.166 -5.33301 38.499 -16s15.5 -23.334 15.5 -38.001s-5.16699 -27.334 -15.5 -38.001s-23.166 -16 -38.499 -16s-28.166 5.33301 -38.499 16
s-15.5 23.334 -15.5 38.001s5.16699 27.334 15.5 38.001s23.166 16 38.499 16zM448 964c14.667 0 27.334 -5.33301 38.001 -16s16 -23.334 16 -38.001s-5.33301 -27.334 -16 -38.001s-23.334 -16 -38.001 -16s-27.334 5.33301 -38.001 16s-16 23.334 -16 38.001
s5.33301 27.334 16 38.001s23.334 16 38.001 16z" />
    <glyph glyph-name="Aring" unicode="&#xc5;" horiz-adv-x="699" 
d="M511 214h-322l-91 -214h-92l348 790l339 -790h-93zM478 292l-126 302l-129 -302h255zM351 1006c26.667 0 49.5 -9.5 68.5 -28.5s28.5 -41.833 28.5 -68.5c0 -27.333 -9.5 -50.5 -28.5 -69.5s-41.833 -28.5 -68.5 -28.5c-27.333 0 -50.5 9.5 -69.5 28.5
s-28.5 42.167 -28.5 69.5c0 26.667 9.66699 49.5 29 68.5s42.333 28.5 69 28.5zM351 956c-13.333 0 -24.668 -4.66504 -34.001 -13.998s-14 -20.333 -14 -33s4.83301 -23.834 14.5 -33.501s20.834 -14.5 33.501 -14.5s23.667 4.66699 33 14s14 20.666 14 33.999
c0 12.667 -4.66699 23.667 -14 33s-20.333 14 -33 14z" />
    <glyph glyph-name="AE" unicode="&#xc6;" horiz-adv-x="1000" 
d="M510 212h-322l-89 -212h-93l336 754h331l34 -78h-305l94 -225h297l35 -78h-298l123 -295h306l33 -78h-393zM476 290l-124 297l-128 -297h252z" />
    <glyph glyph-name="Ccedilla" unicode="&#xc7;" horiz-adv-x="717" 
d="M651 693l0.00195312 -104.001c-64.667 66.667 -141.334 100 -230.001 100c-83.333 0 -154.833 -31 -214.5 -93s-89.5 -135 -89.5 -219s30 -157 90 -219s132 -93 216 -93c85.333 0 161.333 33.333 228 100v-104c-68 -49.333 -143 -74 -225 -74
c-106.667 0 -198.834 37.833 -276.501 113.5s-116.5 166.834 -116.5 273.501c0 108 38.5 200.5 115.5 277.5s169.5 115.5 277.5 115.5c84 0 159 -24.667 225 -74zM444.002 -53.001l-114 -146l-56 28l96 148z" />
    <glyph glyph-name="Egrave" unicode="&#xc8;" horiz-adv-x="534" 
d="M76 0v754h391v-78h-307v-224h298v-78h-298v-296h307v-78h-391zM141 965l84 38l119 -164l-50 -28z" />
    <glyph glyph-name="Eacute" unicode="&#xc9;" horiz-adv-x="534" 
d="M76 0v754h391v-78h-307v-224h298v-78h-298v-296h307v-78h-391zM325 1003l84 -38l-153 -154l-50 28z" />
    <glyph glyph-name="Ecircumflex" unicode="&#xca;" horiz-adv-x="534" 
d="M76 0v754h391v-78h-307v-224h298v-78h-298v-296h307v-78h-391zM110 863l156 133l158 -133l-58 -45l-100 85l-99 -85z" />
    <glyph glyph-name="Edieresis" unicode="&#xcb;" horiz-adv-x="534" 
d="M76 0v754h391v-78h-307v-224h298v-78h-298v-296h307v-78h-391zM169 964c15.333 0 28.166 -5.33301 38.499 -16s15.5 -23.334 15.5 -38.001s-5.16699 -27.334 -15.5 -38.001s-23.166 -16 -38.499 -16s-28.166 5.33301 -38.499 16s-15.5 23.334 -15.5 38.001
s5.16699 27.334 15.5 38.001s23.166 16 38.499 16zM366 964c14.667 0 27.334 -5.33301 38.001 -16s16 -23.334 16 -38.001s-5.33301 -27.334 -16 -38.001s-23.334 -16 -38.001 -16s-27.334 5.33301 -38.001 16s-16 23.334 -16 38.001s5.33301 27.334 16 38.001
s23.334 16 38.001 16z" />
    <glyph glyph-name="Igrave" unicode="&#xcc;" horiz-adv-x="239" 
d="M162 754v-754h-84v754h84zM-7 965l84 38l119 -164l-50 -28z" />
    <glyph glyph-name="Iacute" unicode="&#xcd;" horiz-adv-x="239" 
d="M162 754v-754h-84v754h84zM162 1003l84 -38l-153 -154l-50 28z" />
    <glyph glyph-name="Icircumflex" unicode="&#xce;" horiz-adv-x="239" 
d="M162 754v-754h-84v754h84zM-37 863l156 133l158 -133l-58 -45l-100 85l-99 -85z" />
    <glyph glyph-name="Idieresis" unicode="&#xcf;" horiz-adv-x="239" 
d="M162 754v-754h-84v754h84zM21 964c15.333 0 28.166 -5.33301 38.499 -16s15.5 -23.334 15.5 -38.001s-5.16699 -27.334 -15.5 -38.001s-23.166 -16 -38.499 -16s-28.166 5.33301 -38.499 16s-15.5 23.334 -15.5 38.001s5.16699 27.334 15.5 38.001s23.166 16 38.499 16z
M218 964c14.667 0 27.334 -5.33301 38.001 -16s16 -23.334 16 -38.001s-5.33301 -27.334 -16 -38.001s-23.334 -16 -38.001 -16s-27.334 5.33301 -38.001 16s-16 23.334 -16 38.001s5.33301 27.334 16 38.001s23.334 16 38.001 16z" />
    <glyph glyph-name="Eth" unicode="&#xd0;" horiz-adv-x="678" 
d="M76 0v370h-76v72h76v312h142c62.667 0 117 -6.33301 163 -19s89.667 -36.667 131 -72c83.333 -72 125 -167.667 125 -287c0 -114 -41 -207.667 -123 -281c-42 -37.333 -85.833 -62.5 -131.5 -75.5s-101.167 -19.5 -166.5 -19.5h-140zM160 78h61
c51.333 0 95.833 5.5 133.5 16.5s72.5 31.5 104.5 61.5c62.667 58.667 94 132.334 94 221.001c0 93.333 -32.667 168.666 -98 225.999c-32 28.667 -66.5 48 -103.5 58s-80.5 15 -130.5 15h-61v-234h134v-72h-134v-292z" />
    <glyph glyph-name="Ntilde" unicode="&#xd1;" horiz-adv-x="834" 
d="M81 0v786l588 -616v584h84v-788l-588 615v-581h-84zM291 847l-49.001 38.999c30 52.667 64 79 102 79c23.333 0 50.333 -7.66699 81 -23c34.667 -15.333 56 -23 64 -23c20 0 38.667 16 56 48l47 -38c-9.33301 -23.333 -23.5 -42.666 -42.5 -57.999s-40.167 -23 -63.5 -23
c-18 0 -43 7.66699 -75 23c-33.333 14.667 -56.666 22 -69.999 22c-12.667 0 -22.5 -4 -29.5 -12s-13.833 -19.333 -20.5 -34z" />
    <glyph glyph-name="Ograve" unicode="&#xd2;" horiz-adv-x="862" 
d="M431 767c108 0 200.5 -38.167 277.5 -114.5s115.5 -168.5 115.5 -276.5s-38.5 -199.833 -115.5 -275.5s-169.5 -113.5 -277.5 -113.5s-200.5 37.833 -277.5 113.5s-115.5 167.5 -115.5 275.5s38.5 200.167 115.5 276.5s169.5 114.5 277.5 114.5zM431 689
c-86 0 -158.998 -30.5 -218.998 -91.5s-90 -134.5 -90 -220.5c0 -85.333 30.167 -158.666 90.5 -219.999s133.166 -92 218.499 -92s158.166 30.667 218.499 92s90.5 134.666 90.5 219.999c0 86 -30 159.5 -90 220.5s-133 91.5 -219 91.5zM290.002 965l84 38l119 -164
l-50 -28z" />
    <glyph glyph-name="Oacute" unicode="&#xd3;" horiz-adv-x="862" 
d="M431 767c108 0 200.5 -38.167 277.5 -114.5s115.5 -168.5 115.5 -276.5s-38.5 -199.833 -115.5 -275.5s-169.5 -113.5 -277.5 -113.5s-200.5 37.833 -277.5 113.5s-115.5 167.5 -115.5 275.5s38.5 200.167 115.5 276.5s169.5 114.5 277.5 114.5zM431 689
c-86 0 -158.998 -30.5 -218.998 -91.5s-90 -134.5 -90 -220.5c0 -85.333 30.167 -158.666 90.5 -219.999s133.166 -92 218.499 -92s158.166 30.667 218.499 92s90.5 134.666 90.5 219.999c0 86 -30 159.5 -90 220.5s-133 91.5 -219 91.5zM489.002 1003l84 -38l-153 -154
l-50 28z" />
    <glyph glyph-name="Ocircumflex" unicode="&#xd4;" horiz-adv-x="862" 
d="M431 767c108 0 200.5 -38.167 277.5 -114.5s115.5 -168.5 115.5 -276.5s-38.5 -199.833 -115.5 -275.5s-169.5 -113.5 -277.5 -113.5s-200.5 37.833 -277.5 113.5s-115.5 167.5 -115.5 275.5s38.5 200.167 115.5 276.5s169.5 114.5 277.5 114.5zM431 689
c-86 0 -158.998 -30.5 -218.998 -91.5s-90 -134.5 -90 -220.5c0 -85.333 30.167 -158.666 90.5 -219.999s133.166 -92 218.499 -92s158.166 30.667 218.499 92s90.5 134.666 90.5 219.999c0 86 -30 159.5 -90 220.5s-133 91.5 -219 91.5zM274.002 863l156 133l158 -133
l-58 -45l-100 85l-99 -85z" />
    <glyph glyph-name="Otilde" unicode="&#xd5;" horiz-adv-x="862" 
d="M431 767c108 0 200.5 -38.167 277.5 -114.5s115.5 -168.5 115.5 -276.5s-38.5 -199.833 -115.5 -275.5s-169.5 -113.5 -277.5 -113.5s-200.5 37.833 -277.5 113.5s-115.5 167.5 -115.5 275.5s38.5 200.167 115.5 276.5s169.5 114.5 277.5 114.5zM431 689
c-86 0 -158.998 -30.5 -218.998 -91.5s-90 -134.5 -90 -220.5c0 -85.333 30.167 -158.666 90.5 -219.999s133.166 -92 218.499 -92s158.166 30.667 218.499 92s90.5 134.666 90.5 219.999c0 86 -30 159.5 -90 220.5s-133 91.5 -219 91.5zM305.002 847l-49.001 38.999
c30 52.667 64 79 102 79c23.333 0 50.333 -7.66699 81 -23c34.667 -15.333 56 -23 64 -23c20 0 38.667 16 56 48l47 -38c-9.33301 -23.333 -23.5 -42.666 -42.5 -57.999s-40.167 -23 -63.5 -23c-18 0 -43 7.66699 -75 23c-33.333 14.667 -56.666 22 -69.999 22
c-12.667 0 -22.5 -4 -29.5 -12s-13.833 -19.333 -20.5 -34z" />
    <glyph glyph-name="Odieresis" unicode="&#xd6;" horiz-adv-x="862" 
d="M431 767c108 0 200.5 -38.167 277.5 -114.5s115.5 -168.5 115.5 -276.5s-38.5 -199.833 -115.5 -275.5s-169.5 -113.5 -277.5 -113.5s-200.5 37.833 -277.5 113.5s-115.5 167.5 -115.5 275.5s38.5 200.167 115.5 276.5s169.5 114.5 277.5 114.5zM431 689
c-86 0 -158.998 -30.5 -218.998 -91.5s-90 -134.5 -90 -220.5c0 -85.333 30.167 -158.666 90.5 -219.999s133.166 -92 218.499 -92s158.166 30.667 218.499 92s90.5 134.666 90.5 219.999c0 86 -30 159.5 -90 220.5s-133 91.5 -219 91.5zM333.002 964
c15.333 0 28.166 -5.33301 38.499 -16s15.5 -23.334 15.5 -38.001s-5.16699 -27.334 -15.5 -38.001s-23.166 -16 -38.499 -16s-28.166 5.33301 -38.499 16s-15.5 23.334 -15.5 38.001s5.16699 27.334 15.5 38.001s23.166 16 38.499 16zM530.002 964
c14.667 0 27.334 -5.33301 38.001 -16s16 -23.334 16 -38.001s-5.33301 -27.334 -16 -38.001s-23.334 -16 -38.001 -16s-27.334 5.33301 -38.001 16s-16 23.334 -16 38.001s5.33301 27.334 16 38.001s23.334 16 38.001 16z" />
    <glyph glyph-name="multiply" unicode="&#xd7;" 
d="M66 443l55 55l187 -187l186 187l56 -55l-187 -187l187 -187l-56 -55l-186 187l-187 -187l-55 55l187 187z" />
    <glyph glyph-name="Oslash" unicode="&#xd8;" horiz-adv-x="862" 
d="M189 184l437 436c-55.333 46 -120.333 69 -195 69c-86 0 -159 -30.5 -219 -91.5s-90 -134.5 -90 -220.5c0 -72 22.333 -136.333 67 -193zM671 574l-436.999 -435.999c57.333 -48.667 123 -73 197 -73c85.333 0 158.166 30.667 218.499 92s90.5 134.666 90.5 219.999
c0 74 -23 139.667 -69 197zM42.001 37.001l88.999 89.001c-62 71.333 -93 154.666 -93 249.999c0 108 38.5 200.167 115.5 276.5s169.5 114.5 277.5 114.5c94.667 0 178.334 -30.333 251.001 -91l92 91l46 -45l-92 -91c64 -72.667 96 -157.667 96 -255
c0 -108 -38.5 -199.833 -115.5 -275.5s-169.5 -113.5 -277.5 -113.5c-96 0 -181 31 -255 93l-90 -90z" />
    <glyph glyph-name="Ugrave" unicode="&#xd9;" horiz-adv-x="685" 
d="M158 754v-449c0 -28.667 0.166992 -49 0.5 -61s3.16602 -29.167 8.49902 -51.5s13.333 -40.833 24 -55.5c16 -22 38.167 -39.5 66.5 -52.5s56.833 -19.5 85.5 -19.5c27.333 0 54.5 6 81.5 18s49.167 28.333 66.5 49c11.333 14 20 31.167 26 51.5s9.33301 37.333 10 51
s1 33.167 1 58.5v6.5v5.5v449h84v-472c0 -48 -4.16699 -87.667 -12.5 -119s-26.166 -61.333 -53.499 -90c-53.333 -57.333 -121 -86 -203 -86c-77.333 0 -142.333 25.667 -195 77c-30 28.667 -49.833 59.667 -59.5 93s-14.5 75 -14.5 125v472h84zM202 965l84 38l119 -164
l-50 -28z" />
    <glyph glyph-name="Uacute" unicode="&#xda;" horiz-adv-x="685" 
d="M158 754v-449c0 -28.667 0.166992 -49 0.5 -61s3.16602 -29.167 8.49902 -51.5s13.333 -40.833 24 -55.5c16 -22 38.167 -39.5 66.5 -52.5s56.833 -19.5 85.5 -19.5c27.333 0 54.5 6 81.5 18s49.167 28.333 66.5 49c11.333 14 20 31.167 26 51.5s9.33301 37.333 10 51
s1 33.167 1 58.5v6.5v5.5v449h84v-472c0 -48 -4.16699 -87.667 -12.5 -119s-26.166 -61.333 -53.499 -90c-53.333 -57.333 -121 -86 -203 -86c-77.333 0 -142.333 25.667 -195 77c-30 28.667 -49.833 59.667 -59.5 93s-14.5 75 -14.5 125v472h84zM401 1003l84 -38l-153 -154
l-50 28z" />
    <glyph glyph-name="Ucircumflex" unicode="&#xdb;" horiz-adv-x="685" 
d="M158 754v-449c0 -28.667 0.166992 -49 0.5 -61s3.16602 -29.167 8.49902 -51.5s13.333 -40.833 24 -55.5c16 -22 38.167 -39.5 66.5 -52.5s56.833 -19.5 85.5 -19.5c27.333 0 54.5 6 81.5 18s49.167 28.333 66.5 49c11.333 14 20 31.167 26 51.5s9.33301 37.333 10 51
s1 33.167 1 58.5v6.5v5.5v449h84v-472c0 -48 -4.16699 -87.667 -12.5 -119s-26.166 -61.333 -53.499 -90c-53.333 -57.333 -121 -86 -203 -86c-77.333 0 -142.333 25.667 -195 77c-30 28.667 -49.833 59.667 -59.5 93s-14.5 75 -14.5 125v472h84zM186 863l156 133l158 -133
l-58 -45l-100 85l-99 -85z" />
    <glyph glyph-name="Udieresis" unicode="&#xdc;" horiz-adv-x="685" 
d="M158 754v-449c0 -28.667 0.166992 -49 0.5 -61s3.16602 -29.167 8.49902 -51.5s13.333 -40.833 24 -55.5c16 -22 38.167 -39.5 66.5 -52.5s56.833 -19.5 85.5 -19.5c27.333 0 54.5 6 81.5 18s49.167 28.333 66.5 49c11.333 14 20 31.167 26 51.5s9.33301 37.333 10 51
s1 33.167 1 58.5v6.5v5.5v449h84v-472c0 -48 -4.16699 -87.667 -12.5 -119s-26.166 -61.333 -53.499 -90c-53.333 -57.333 -121 -86 -203 -86c-77.333 0 -142.333 25.667 -195 77c-30 28.667 -49.833 59.667 -59.5 93s-14.5 75 -14.5 125v472h84zM244 964
c14.667 0 27.334 -5.33301 38.001 -16s16 -23.334 16 -38.001s-5.33301 -27.334 -16 -38.001s-23.334 -16 -38.001 -16s-27.334 5.33301 -38.001 16s-16 23.334 -16 38.001s5.33301 27.334 16 38.001s23.334 16 38.001 16zM441 964c15.333 0 28.166 -5.33301 38.499 -16
s15.5 -23.334 15.5 -38.001s-5.16699 -27.334 -15.5 -38.001s-23.166 -16 -38.499 -16s-28.166 5.33301 -38.499 16s-15.5 23.334 -15.5 38.001s5.16699 27.334 15.5 38.001s23.166 16 38.499 16z" />
    <glyph glyph-name="Yacute" unicode="&#xdd;" horiz-adv-x="593" 
d="M255 324l-247 430h97l192 -336l192 336h97l-247 -430v-324h-84v324zM375 1003l84 -38l-153 -154l-50 28z" />
    <glyph glyph-name="Thorn" unicode="&#xde;" horiz-adv-x="503" 
d="M160 190l0.00195312 -190.001h-84v754h84v-140h40c41.333 0 76.666 -2.33301 105.999 -7s56.333 -15.667 81 -33c27.333 -19.333 48.333 -44.166 63 -74.499s22 -62.833 22 -97.5c0 -68 -24 -122 -72 -162c-40.667 -33.333 -100.334 -50 -179.001 -50h-61z
M160.002 535.999l0.00195312 -268h56c114.667 0 172 45.333 172 136c0 24 -3.83301 44.333 -11.5 61s-17.334 29.5 -29.001 38.5s-26.834 16 -45.501 21s-36 8.16699 -52 9.5s-35.667 2 -59 2h-31z" />
    <glyph glyph-name="germandbls" unicode="&#xdf;" horiz-adv-x="577" 
d="M72 0l-0.00195312 396.005h-44v74h44v144c0 70 13 121.333 39 154c18 22.667 41.333 40 70 52s58.334 18 89.001 18c55.333 0 101.5 -17.667 138.5 -53s55.5 -80.333 55.5 -135c0 -30.667 -7.33301 -59.334 -22 -86.001s-35.334 -46.667 -62.001 -60
c48 -16.667 86.833 -47.834 116.5 -93.501s44.5 -94.834 44.5 -147.501c0 -76.667 -28.5 -141.5 -85.5 -194.5s-124.167 -80.167 -201.5 -81.5v74c57.333 3.33301 105.833 24.166 145.5 62.499s59.5 85.833 59.5 142.5c0 28.667 -6.33301 56.167 -19 82.5
s-30 48.166 -52 65.499c-32 24.667 -76.667 39.334 -134 44.001v74c38 -0.666992 69.167 10.166 93.5 32.499s36.5 52.166 36.5 89.499c0 32.667 -11 59.167 -33 79.5s-49.333 30.5 -82 30.5c-23.333 0 -44.666 -5 -63.999 -15s-32.666 -25 -39.999 -45
c-8.66699 -21.333 -13 -63.666 -13 -126.999v-577h-80z" />
    <glyph glyph-name="agrave" unicode="&#xe0;" horiz-adv-x="577" 
d="M271 409c-44.667 0 -81.333 -16.667 -110 -50s-43 -73 -43 -119c0 -48.667 13.833 -90.667 41.5 -126s65.167 -53 112.5 -53c49.333 0 87.833 17.167 115.5 51.5s41.5 76.5 41.5 126.5c0 48.667 -14.333 89.167 -43 121.5s-67 48.5 -115 48.5zM505.001 470
l0.000976562 -469.999h-80v65h-2c-40.667 -52 -94.667 -78 -162 -78c-66.667 0 -120.834 24.333 -162.501 73s-62.5 106.667 -62.5 174c0 69.333 20.667 128.166 62 176.499s96 72.5 164 72.5c66 0 119.667 -26.667 161 -80h2v67h80zM148.002 706.001l84 38l119 -164
l-50 -28z" />
    <glyph glyph-name="aacute" unicode="&#xe1;" horiz-adv-x="577" 
d="M271 409c-44.667 0 -81.333 -16.667 -110 -50s-43 -73 -43 -119c0 -48.667 13.833 -90.667 41.5 -126s65.167 -53 112.5 -53c49.333 0 87.833 17.167 115.5 51.5s41.5 76.5 41.5 126.5c0 48.667 -14.333 89.167 -43 121.5s-67 48.5 -115 48.5zM505.001 470
l0.000976562 -469.999h-80v65h-2c-40.667 -52 -94.667 -78 -162 -78c-66.667 0 -120.834 24.333 -162.501 73s-62.5 106.667 -62.5 174c0 69.333 20.667 128.166 62 176.499s96 72.5 164 72.5c66 0 119.667 -26.667 161 -80h2v67h80zM347.002 744.001l84 -38l-153 -154
l-50 28z" />
    <glyph glyph-name="acircumflex" unicode="&#xe2;" horiz-adv-x="577" 
d="M271 409c-44.667 0 -81.333 -16.667 -110 -50s-43 -73 -43 -119c0 -48.667 13.833 -90.667 41.5 -126s65.167 -53 112.5 -53c49.333 0 87.833 17.167 115.5 51.5s41.5 76.5 41.5 126.5c0 48.667 -14.333 89.167 -43 121.5s-67 48.5 -115 48.5zM505.001 470
l0.000976562 -469.999h-80v65h-2c-40.667 -52 -94.667 -78 -162 -78c-66.667 0 -120.834 24.333 -162.501 73s-62.5 106.667 -62.5 174c0 69.333 20.667 128.166 62 176.499s96 72.5 164 72.5c66 0 119.667 -26.667 161 -80h2v67h80zM132.002 604.001l156 133l158 -133
l-58 -45l-100 85l-99 -85z" />
    <glyph glyph-name="atilde" unicode="&#xe3;" horiz-adv-x="577" 
d="M271 409c-44.667 0 -81.333 -16.667 -110 -50s-43 -73 -43 -119c0 -48.667 13.833 -90.667 41.5 -126s65.167 -53 112.5 -53c49.333 0 87.833 17.167 115.5 51.5s41.5 76.5 41.5 126.5c0 48.667 -14.333 89.167 -43 121.5s-67 48.5 -115 48.5zM505.001 470
l0.000976562 -469.999h-80v65h-2c-40.667 -52 -94.667 -78 -162 -78c-66.667 0 -120.834 24.333 -162.501 73s-62.5 106.667 -62.5 174c0 69.333 20.667 128.166 62 176.499s96 72.5 164 72.5c66 0 119.667 -26.667 161 -80h2v67h80zM163.002 588.001l-49.001 38.999
c30 52.667 64 79 102 79c23.333 0 50.333 -7.66699 81 -23c34.667 -15.333 56 -23 64 -23c20 0 38.667 16 56 48l47 -38c-9.33301 -23.333 -23.5 -42.666 -42.5 -57.999s-40.167 -23 -63.5 -23c-18 0 -43 7.66699 -75 23c-33.333 14.667 -56.666 22 -69.999 22
c-12.667 0 -22.5 -4 -29.5 -12s-13.833 -19.333 -20.5 -34z" />
    <glyph glyph-name="adieresis" unicode="&#xe4;" horiz-adv-x="577" 
d="M271 409c-44.667 0 -81.333 -16.667 -110 -50s-43 -73 -43 -119c0 -48.667 13.833 -90.667 41.5 -126s65.167 -53 112.5 -53c49.333 0 87.833 17.167 115.5 51.5s41.5 76.5 41.5 126.5c0 48.667 -14.333 89.167 -43 121.5s-67 48.5 -115 48.5zM505.001 470
l0.000976562 -469.999h-80v65h-2c-40.667 -52 -94.667 -78 -162 -78c-66.667 0 -120.834 24.333 -162.501 73s-62.5 106.667 -62.5 174c0 69.333 20.667 128.166 62 176.499s96 72.5 164 72.5c66 0 119.667 -26.667 161 -80h2v67h80zM190.002 705.001
c14.667 0 27.334 -5.16699 38.001 -15.5s16 -23.166 16 -38.499s-5.33301 -28.166 -16 -38.499s-23.334 -15.5 -38.001 -15.5s-27.334 5.16699 -38.001 15.5s-16 23.166 -16 38.499s5.33301 28.166 16 38.499s23.334 15.5 38.001 15.5zM387.002 705.001
c15.333 0 28.166 -5.16699 38.499 -15.5s15.5 -23.166 15.5 -38.499s-5.16699 -28.166 -15.5 -38.499s-23.166 -15.5 -38.499 -15.5s-28.166 5.16699 -38.499 15.5s-15.5 23.166 -15.5 38.499s5.16699 28.166 15.5 38.499s23.166 15.5 38.499 15.5z" />
    <glyph glyph-name="aring" unicode="&#xe5;" horiz-adv-x="577" 
d="M271 409c-44.667 0 -81.333 -16.667 -110 -50s-43 -73 -43 -119c0 -48.667 13.833 -90.667 41.5 -126s65.167 -53 112.5 -53c49.333 0 87.833 17.167 115.5 51.5s41.5 76.5 41.5 126.5c0 48.667 -14.333 89.167 -43 121.5s-67 48.5 -115 48.5zM505.001 470
l0.000976562 -469.999h-80v65h-2c-40.667 -52 -94.667 -78 -162 -78c-66.667 0 -120.834 24.333 -162.501 73s-62.5 106.667 -62.5 174c0 69.333 20.667 128.166 62 176.499s96 72.5 164 72.5c66 0 119.667 -26.667 161 -80h2v67h80zM290.002 747.001
c26.667 0 49.5 -9.5 68.5 -28.5s28.5 -41.833 28.5 -68.5c0 -27.333 -9.5 -50.5 -28.5 -69.5s-41.833 -28.5 -68.5 -28.5s-49.667 9.66699 -69 29s-29 42.333 -29 69s9.66699 49.5 29 68.5s42.333 28.5 69 28.5zM290.002 697.001c-13.333 0 -24.666 -4.66699 -33.999 -14
s-14 -20.333 -14 -33c0 -13.333 4.66699 -24.666 14 -33.999s20.666 -14 33.999 -14c12.667 0 23.667 4.66699 33 14s14 20.666 14 33.999s-4.5 24.5 -13.5 33.5s-20.167 13.5 -33.5 13.5z" />
    <glyph glyph-name="ae" unicode="&#xe6;" horiz-adv-x="843" 
d="M447 286l281 -0.000976562c-5.33301 34.667 -21 63.834 -47 87.501s-56.333 35.5 -91 35.5s-66 -12 -94 -36s-44.333 -53 -49 -87zM228 222.999c-30 0 -57.333 -7 -82 -21s-37 -34.667 -37 -62s12 -47.333 36 -60s51.333 -19 82 -19c32.667 0 62 6.5 88 19.5
s39 34.167 39 63.5c0 27.333 -13.5 47.333 -40.5 60s-55.5 19 -85.5 19zM809 217.999l-370.001 -0.000976562c0.666992 -44 15.334 -81.167 44.001 -111.5s65.334 -45.5 110.001 -45.5c59.333 0 107 32.333 143 97l68 -39c-47.333 -88 -119.666 -132 -216.999 -132
c-36 0 -69.833 8 -101.5 24s-57.834 39 -78.501 69c-35.333 -62 -94 -93 -176 -93c-54 0 -101.167 12.667 -141.5 38s-60.5 63 -60.5 113c0 50.667 19.5 89.334 58.5 116.001s84.833 40 137.5 40c50 0 94.667 -13.333 134 -40c-0.666992 50 -11.167 88.333 -31.5 115
s-54.833 40 -103.5 40c-37.333 0 -85.333 -10 -144 -30v76c62 18.667 111.667 28 149 28s72.166 -8.16699 104.499 -24.5s55.5 -40.5 69.5 -72.5c18 30 43.833 53.667 77.5 71s68.5 26 104.5 26c72.667 0 129 -25.667 169 -77s58.333 -114 55 -188z" />
    <glyph glyph-name="ccedilla" unicode="&#xe7;" horiz-adv-x="476" 
d="M425 436v-106h-2c-41.333 52.667 -90 79 -146 79c-47.333 0 -86.833 -17 -118.5 -51s-47.5 -75 -47.5 -123s15 -89 45 -123s69 -51 117 -51c60.667 0 111.667 27 153 81h2v-107c-47.333 -32 -97 -48 -149 -48c-71.333 0 -130.833 23.667 -178.5 71
s-71.5 106.333 -71.5 177c0 69.333 24.5 128 73.5 176s108.167 72 177.5 72c52.667 0 101 -15.667 145 -47zM324 -53l-114 -146l-56 28l96 148z" />
    <glyph glyph-name="egrave" unicode="&#xe8;" horiz-adv-x="519" 
d="M485 218h-369.004c0.666992 -44 15.334 -81.167 44.001 -111.5s65.334 -45.5 110.001 -45.5c59.333 0 107 32.333 143 97l68 -39c-47.333 -88 -119.666 -132 -216.999 -132c-68.667 0 -124.167 23.167 -166.5 69.5s-63.5 103.833 -63.5 172.5
c0 72.667 20.333 133.167 61 181.5s96.334 72.5 167.001 72.5c72.667 0 129 -25.833 169 -77.5s58 -114.167 54 -187.5zM119.996 286l281 -0.000976562c-5.33301 34.667 -21 63.834 -47 87.501s-56.333 35.5 -91 35.5s-66 -12 -94 -36s-44.333 -53 -49 -87zM118.996 705.999
l84 38l119 -164l-50 -28z" />
    <glyph glyph-name="eacute" unicode="&#xe9;" horiz-adv-x="519" 
d="M485 218h-369.004c0.666992 -44 15.334 -81.167 44.001 -111.5s65.334 -45.5 110.001 -45.5c59.333 0 107 32.333 143 97l68 -39c-47.333 -88 -119.666 -132 -216.999 -132c-68.667 0 -124.167 23.167 -166.5 69.5s-63.5 103.833 -63.5 172.5
c0 72.667 20.333 133.167 61 181.5s96.334 72.5 167.001 72.5c72.667 0 129 -25.833 169 -77.5s58 -114.167 54 -187.5zM119.996 286l281 -0.000976562c-5.33301 34.667 -21 63.834 -47 87.501s-56.333 35.5 -91 35.5s-66 -12 -94 -36s-44.333 -53 -49 -87zM317.996 743.999
l84 -38l-153 -154l-50 28z" />
    <glyph glyph-name="ecircumflex" unicode="&#xea;" horiz-adv-x="519" 
d="M485 218h-369.004c0.666992 -44 15.334 -81.167 44.001 -111.5s65.334 -45.5 110.001 -45.5c59.333 0 107 32.333 143 97l68 -39c-47.333 -88 -119.666 -132 -216.999 -132c-68.667 0 -124.167 23.167 -166.5 69.5s-63.5 103.833 -63.5 172.5
c0 72.667 20.333 133.167 61 181.5s96.334 72.5 167.001 72.5c72.667 0 129 -25.833 169 -77.5s58 -114.167 54 -187.5zM119.996 286l281 -0.000976562c-5.33301 34.667 -21 63.834 -47 87.501s-56.333 35.5 -91 35.5s-66 -12 -94 -36s-44.333 -53 -49 -87zM102.996 603.999
l156 133l158 -133l-58 -45l-100 85l-99 -85z" />
    <glyph glyph-name="edieresis" unicode="&#xeb;" horiz-adv-x="519" 
d="M485 218h-369.004c0.666992 -44 15.334 -81.167 44.001 -111.5s65.334 -45.5 110.001 -45.5c59.333 0 107 32.333 143 97l68 -39c-47.333 -88 -119.666 -132 -216.999 -132c-68.667 0 -124.167 23.167 -166.5 69.5s-63.5 103.833 -63.5 172.5
c0 72.667 20.333 133.167 61 181.5s96.334 72.5 167.001 72.5c72.667 0 129 -25.833 169 -77.5s58 -114.167 54 -187.5zM119.996 286l281 -0.000976562c-5.33301 34.667 -21 63.834 -47 87.501s-56.333 35.5 -91 35.5s-66 -12 -94 -36s-44.333 -53 -49 -87zM160.996 704.999
c15.333 0 28.166 -5.16699 38.499 -15.5s15.5 -23.166 15.5 -38.499s-5.16699 -28.166 -15.5 -38.499s-23.166 -15.5 -38.499 -15.5s-28.166 5.16699 -38.499 15.5s-15.5 23.166 -15.5 38.499s5.16699 28.166 15.5 38.499s23.166 15.5 38.499 15.5zM357.996 704.999
c14.667 0 27.334 -5.16699 38.001 -15.5s16 -23.166 16 -38.499s-5.33301 -28.166 -16 -38.499s-23.334 -15.5 -38.001 -15.5s-27.334 5.16699 -38.001 15.5s-16 23.166 -16 38.499s5.33301 28.166 16 38.499s23.334 15.5 38.001 15.5z" />
    <glyph glyph-name="igrave" unicode="&#xec;" horiz-adv-x="262" 
d="M171 470v-470h-80v470h80zM5 706l84 38l119 -164l-50 -28z" />
    <glyph glyph-name="iacute" unicode="&#xed;" horiz-adv-x="262" 
d="M171 470v-470h-80v470h80zM174 744l84 -38l-153 -154l-50 28z" />
    <glyph glyph-name="icircumflex" unicode="&#xee;" horiz-adv-x="262" 
d="M171 470v-470h-80v470h80zM-26 604l156 133l158 -133l-58 -45l-100 85l-99 -85z" />
    <glyph glyph-name="idieresis" unicode="&#xef;" horiz-adv-x="262" 
d="M171 470v-470h-80v470h80zM33 705c15.333 0 28.166 -5.16699 38.499 -15.5s15.5 -23.166 15.5 -38.499s-5.16699 -28.166 -15.5 -38.499s-23.166 -15.5 -38.499 -15.5s-28.166 5.16699 -38.499 15.5s-15.5 23.166 -15.5 38.499s5.16699 28.166 15.5 38.499
s23.166 15.5 38.499 15.5zM230 705c14.667 0 27.334 -5.16699 38.001 -15.5s16 -23.166 16 -38.499s-5.33301 -28.166 -16 -38.499s-23.334 -15.5 -38.001 -15.5s-27.334 5.16699 -38.001 15.5s-16 23.166 -16 38.499s5.33301 28.166 16 38.499s23.334 15.5 38.001 15.5z
" />
    <glyph glyph-name="eth" unicode="&#xf0;" horiz-adv-x="561" 
d="M93 785l44.001 46.0049c58.667 -38 104.334 -70.667 137.001 -98l138 92l40 -41l-134 -90c14 -13.333 25.167 -24.5 33.5 -33.5s22.166 -24.833 41.499 -47.5s35.5 -45.334 48.5 -68.001s26.833 -49.167 41.5 -79.5s25.667 -63.5 33 -99.5s11 -72.667 11 -110
c0 -44.667 -7.5 -84.834 -22.5 -120.501s-34.833 -63.834 -59.5 -84.501s-51 -36.334 -79 -47.001s-56.333 -16 -85 -16c-68.667 0 -127 24.167 -175 72.5s-72 106.5 -72 174.5c0 65.333 22.5 122.666 67.5 171.999s102.167 74 171.5 74c59.333 0 111.333 -21.333 156 -64
c-28.667 81.333 -85 161 -169 239l-133 -89l-39 41l130 87c-32.667 28.667 -74.334 58.667 -125.001 90zM115.001 236.005c0 -50.667 16.168 -92.333 48.501 -125s71.833 -49 118.5 -49c48.667 0 88.5 17 119.5 51s46.5 75 46.5 123c0 47.333 -15.5 88.166 -46.5 122.499
s-70.5 51.5 -118.5 51.5c-48.667 0 -88.834 -16.667 -120.501 -50s-47.5 -74.666 -47.5 -123.999z" />
    <glyph glyph-name="ntilde" unicode="&#xf1;" horiz-adv-x="528" 
d="M156 470v-56.999h2c34 46.667 78.667 70 134 70c60 0 101.667 -18.333 125 -55s35 -86.334 35 -149.001v-279h-80v265c0 22.667 -0.833008 41.167 -2.5 55.5s-5.5 29 -11.5 44s-16.167 26.167 -30.5 33.5s-32.5 11 -54.5 11c-21.333 0 -39.5 -4 -54.5 -12
s-26.5 -17.667 -34.5 -29s-14.167 -26 -18.5 -44s-7 -34.167 -8 -48.5s-1.5 -31.833 -1.5 -52.5v-223h-80v470h80zM138 588.001l-49.001 38.999c30 52.667 64 79 102 79c23.333 0 50.333 -7.66699 81 -23c34.667 -15.333 56 -23 64 -23c20 0 38.667 16 56 48l47 -38
c-9.33301 -23.333 -23.5 -42.666 -42.5 -57.999s-40.167 -23 -63.5 -23c-18 0 -43 7.66699 -75 23c-33.333 14.667 -56.666 22 -69.999 22c-12.667 0 -22.5 -4 -29.5 -12s-13.833 -19.333 -20.5 -34z" />
    <glyph glyph-name="ograve" unicode="&#xf2;" horiz-adv-x="562" 
d="M281 -13c-68.667 0 -127 24 -175 72s-72 106.333 -72 175c0 69.333 24 128.166 72 176.499s106.333 72.5 175 72.5s127 -24.167 175 -72.5s72 -107.166 72 -176.499c0 -68.667 -24 -127 -72 -175s-106.333 -72 -175 -72zM281 409c-48.667 0 -88.667 -16.833 -120 -50.5
s-47 -74.834 -47 -123.501s15.667 -89.834 47 -123.501s71.333 -50.5 120 -50.5s88.667 16.833 120 50.5s47 74.834 47 123.501s-15.667 89.834 -47 123.501s-71.333 50.5 -120 50.5zM140 706l84 38l119 -164l-50 -28z" />
    <glyph glyph-name="oacute" unicode="&#xf3;" horiz-adv-x="562" 
d="M281 -13c-68.667 0 -127 24 -175 72s-72 106.333 -72 175c0 69.333 24 128.166 72 176.499s106.333 72.5 175 72.5s127 -24.167 175 -72.5s72 -107.166 72 -176.499c0 -68.667 -24 -127 -72 -175s-106.333 -72 -175 -72zM281 409c-48.667 0 -88.667 -16.833 -120 -50.5
s-47 -74.834 -47 -123.501s15.667 -89.834 47 -123.501s71.333 -50.5 120 -50.5s88.667 16.833 120 50.5s47 74.834 47 123.501s-15.667 89.834 -47 123.501s-71.333 50.5 -120 50.5zM339 744l84 -38l-153 -154l-50 28z" />
    <glyph glyph-name="ocircumflex" unicode="&#xf4;" horiz-adv-x="562" 
d="M281 -13c-68.667 0 -127 24 -175 72s-72 106.333 -72 175c0 69.333 24 128.166 72 176.499s106.333 72.5 175 72.5s127 -24.167 175 -72.5s72 -107.166 72 -176.499c0 -68.667 -24 -127 -72 -175s-106.333 -72 -175 -72zM281 409c-48.667 0 -88.667 -16.833 -120 -50.5
s-47 -74.834 -47 -123.501s15.667 -89.834 47 -123.501s71.333 -50.5 120 -50.5s88.667 16.833 120 50.5s47 74.834 47 123.501s-15.667 89.834 -47 123.501s-71.333 50.5 -120 50.5zM124 604l156 133l158 -133l-58 -45l-100 85l-99 -85z" />
    <glyph glyph-name="otilde" unicode="&#xf5;" horiz-adv-x="562" 
d="M281 -13c-68.667 0 -127 24 -175 72s-72 106.333 -72 175c0 69.333 24 128.166 72 176.499s106.333 72.5 175 72.5s127 -24.167 175 -72.5s72 -107.166 72 -176.499c0 -68.667 -24 -127 -72 -175s-106.333 -72 -175 -72zM281 409c-48.667 0 -88.667 -16.833 -120 -50.5
s-47 -74.834 -47 -123.501s15.667 -89.834 47 -123.501s71.333 -50.5 120 -50.5s88.667 16.833 120 50.5s47 74.834 47 123.501s-15.667 89.834 -47 123.501s-71.333 50.5 -120 50.5zM155 588l-49.001 38.999c30 52.667 64 79 102 79c23.333 0 50.333 -7.66699 81 -23
c34.667 -15.333 56 -23 64 -23c20 0 38.667 16 56 48l47 -38c-9.33301 -23.333 -23.5 -42.666 -42.5 -57.999s-40.167 -23 -63.5 -23c-18 0 -43 7.66699 -75 23c-33.333 14.667 -56.666 22 -69.999 22c-12.667 0 -22.5 -4 -29.5 -12s-13.833 -19.333 -20.5 -34z" />
    <glyph glyph-name="odieresis" unicode="&#xf6;" horiz-adv-x="562" 
d="M281 -13c-68.667 0 -127 24 -175 72s-72 106.333 -72 175c0 69.333 24 128.166 72 176.499s106.333 72.5 175 72.5s127 -24.167 175 -72.5s72 -107.166 72 -176.499c0 -68.667 -24 -127 -72 -175s-106.333 -72 -175 -72zM281 409c-48.667 0 -88.667 -16.833 -120 -50.5
s-47 -74.834 -47 -123.501s15.667 -89.834 47 -123.501s71.333 -50.5 120 -50.5s88.667 16.833 120 50.5s47 74.834 47 123.501s-15.667 89.834 -47 123.501s-71.333 50.5 -120 50.5zM183 705c15.333 0 28.166 -5.16699 38.499 -15.5s15.5 -23.166 15.5 -38.499
s-5.16699 -28.166 -15.5 -38.499s-23.166 -15.5 -38.499 -15.5s-28.166 5.16699 -38.499 15.5s-15.5 23.166 -15.5 38.499s5.16699 28.166 15.5 38.499s23.166 15.5 38.499 15.5zM380 705c14.667 0 27.334 -5.16699 38.001 -15.5s16 -23.166 16 -38.499
s-5.33301 -28.166 -16 -38.499s-23.334 -15.5 -38.001 -15.5s-27.334 5.16699 -38.001 15.5s-16 23.166 -16 38.499s5.33301 28.166 16 38.499s23.334 15.5 38.001 15.5z" />
    <glyph glyph-name="divide" unicode="&#xf7;" 
d="M66 217v78h484v-78h-484zM308 124c15.333 0 28.666 -5.66699 39.999 -17s17 -24.666 17 -39.999c0 -16 -5.66699 -29.5 -17 -40.5s-24.666 -16.5 -39.999 -16.5s-28.666 5.5 -39.999 16.5s-17 24.5 -17 40.5c0 15.333 5.66699 28.666 17 39.999s24.666 17 39.999 17z
M308 502c15.333 0 28.666 -5.66699 39.999 -17s17 -24.666 17 -39.999c0 -16 -5.66699 -29.5 -17 -40.5s-24.666 -16.5 -39.999 -16.5s-28.666 5.5 -39.999 16.5s-17 24.5 -17 40.5c0 15.333 5.66699 28.666 17 39.999s24.666 17 39.999 17z" />
    <glyph glyph-name="oslash" unicode="&#xf8;" horiz-adv-x="562" 
d="M143 134l240 240.001c-28.667 23.333 -62.667 35 -102 35c-48.667 0 -88.667 -16.833 -120 -50.5s-47 -74.834 -47 -123.501c0 -37.333 9.66699 -71 29 -101zM419 333.001l-237.999 -239.001c27.333 -22 60.666 -33 99.999 -33c48.667 0 88.667 16.833 120 50.5
s47 74.834 47 123.501c0 38 -9.66699 70.667 -29 98zM20.001 11l68 68c-36 44.667 -54 96.334 -54 155.001c0 69.333 24 128.166 72 176.499s106.333 72.5 175 72.5c60 0 112 -18.333 156 -55l66 66l39 -38l-67 -67c35.333 -44 53 -95.667 53 -155
c0 -68.667 -24 -127 -72 -175s-106.333 -72 -175 -72c-58 0 -109.333 17.667 -154 53l-68 -68z" />
    <glyph glyph-name="ugrave" unicode="&#xf9;" horiz-adv-x="512" 
d="M150 470l0.00390625 -262c0 -18 0.5 -33.333 1.5 -46s3.66699 -25.834 8 -39.501s10.166 -24.667 17.499 -33s17.666 -15.166 30.999 -20.499s29.333 -8 48 -8s34.667 2.66699 48 8s23.666 12.166 30.999 20.499s13.166 19.333 17.499 33s7 26.834 8 39.501
s1.5 28 1.5 46v262h80v-271c0 -141.333 -62 -212 -186 -212s-186 70.667 -186 212v271h80zM115.004 706l84 38l119 -164l-50 -28z" />
    <glyph glyph-name="uacute" unicode="&#xfa;" horiz-adv-x="512" 
d="M150 470l0.00390625 -262c0 -18 0.5 -33.333 1.5 -46s3.66699 -25.834 8 -39.501s10.166 -24.667 17.499 -33s17.666 -15.166 30.999 -20.499s29.333 -8 48 -8s34.667 2.66699 48 8s23.666 12.166 30.999 20.499s13.166 19.333 17.499 33s7 26.834 8 39.501
s1.5 28 1.5 46v262h80v-271c0 -141.333 -62 -212 -186 -212s-186 70.667 -186 212v271h80zM314.004 744l84 -38l-153 -154l-50 28z" />
    <glyph glyph-name="ucircumflex" unicode="&#xfb;" horiz-adv-x="512" 
d="M150 470l0.00390625 -262c0 -18 0.5 -33.333 1.5 -46s3.66699 -25.834 8 -39.501s10.166 -24.667 17.499 -33s17.666 -15.166 30.999 -20.499s29.333 -8 48 -8s34.667 2.66699 48 8s23.666 12.166 30.999 20.499s13.166 19.333 17.499 33s7 26.834 8 39.501
s1.5 28 1.5 46v262h80v-271c0 -141.333 -62 -212 -186 -212s-186 70.667 -186 212v271h80zM99.0039 604l156 133l158 -133l-58 -45l-100 85l-99 -85z" />
    <glyph glyph-name="udieresis" unicode="&#xfc;" horiz-adv-x="512" 
d="M150 470l0.00390625 -262c0 -18 0.5 -33.333 1.5 -46s3.66699 -25.834 8 -39.501s10.166 -24.667 17.499 -33s17.666 -15.166 30.999 -20.499s29.333 -8 48 -8s34.667 2.66699 48 8s23.666 12.166 30.999 20.499s13.166 19.333 17.499 33s7 26.834 8 39.501
s1.5 28 1.5 46v262h80v-271c0 -141.333 -62 -212 -186 -212s-186 70.667 -186 212v271h80zM158.004 705c14.667 0 27.334 -5.16699 38.001 -15.5s16 -23.166 16 -38.499s-5.33301 -28.166 -16 -38.499s-23.334 -15.5 -38.001 -15.5s-27.334 5.16699 -38.001 15.5
s-16 23.166 -16 38.499s5.33301 28.166 16 38.499s23.334 15.5 38.001 15.5zM355.004 705c15.333 0 28.166 -5.16699 38.499 -15.5s15.5 -23.166 15.5 -38.499s-5.16699 -28.166 -15.5 -38.499s-23.166 -15.5 -38.499 -15.5s-28.166 5.16699 -38.499 15.5
s-15.5 23.166 -15.5 38.499s5.16699 28.166 15.5 38.499s23.166 15.5 38.499 15.5z" />
    <glyph glyph-name="yacute" unicode="&#xfd;" horiz-adv-x="498" 
d="M214 44l-216 426h93l166 -337l152 337h91l-347 -734h-91zM327 744l84 -38l-153 -154l-50 28z" />
    <glyph glyph-name="thorn" unicode="&#xfe;" horiz-adv-x="577" 
d="M152 825l-0.000976562 -422h2c40 53.333 94 80 162 80c66.667 0 120.834 -24.5 162.501 -73.5s62.5 -107.5 62.5 -175.5c0 -69.333 -20.5 -127.833 -61.5 -175.5s-95.833 -71.5 -164.5 -71.5c-68 0 -121.667 26.333 -161 79h-2v-330h-80v1089h80zM300.999 409
c-44.667 0 -81.333 -16.667 -110 -50s-43 -73 -43 -119c0 -48.667 13.833 -90.667 41.5 -126s65.167 -53 112.5 -53c49.333 0 87.833 17.167 115.5 51.5s41.5 76.5 41.5 126.5c0 48.667 -14.333 89.167 -43 121.5s-67 48.5 -115 48.5z" />
    <glyph glyph-name="ydieresis" unicode="&#xff;" horiz-adv-x="498" 
d="M214 44l-216 426h93l166 -337l152 337h91l-347 -734h-91zM156 705c14.667 0 27.334 -5.16699 38.001 -15.5s16 -23.166 16 -38.499s-5.33301 -28.166 -16 -38.499s-23.334 -15.5 -38.001 -15.5s-27.334 5.16699 -38.001 15.5s-16 23.166 -16 38.499
s5.33301 28.166 16 38.499s23.334 15.5 38.001 15.5zM353 705c15.333 0 28.166 -5.16699 38.499 -15.5s15.5 -23.166 15.5 -38.499s-5.16699 -28.166 -15.5 -38.499s-23.166 -15.5 -38.499 -15.5s-28.166 5.16699 -38.499 15.5s-15.5 23.166 -15.5 38.499
s5.16699 28.166 15.5 38.499s23.166 15.5 38.499 15.5z" />
    <glyph glyph-name="dotlessi" unicode="&#x131;" horiz-adv-x="262" 
d="M171 470v-470h-80v470h80z" />
    <glyph glyph-name="Lslash" unicode="&#x141;" horiz-adv-x="375" 
d="M76 0v319l-76 -49v80l76 49v355h84v-300l130 84v-80l-130 -84v-296h208v-78h-292z" />
    <glyph glyph-name="lslash" unicode="&#x142;" horiz-adv-x="258" 
d="M89 0v370l-74 -49v71l74 49v384h80v-330l74 49v-71l-74 -49v-424h-80z" />
    <glyph glyph-name="OE" unicode="&#x152;" horiz-adv-x="1190" 
d="M729 0l0.00195312 145h-2c-32.667 -50 -75.167 -89 -127.5 -117s-108.5 -41.667 -168.5 -41c-108 0 -200.5 37.833 -277.5 113.5s-115.5 167.5 -115.5 275.5s38.5 200.167 115.5 276.5s169.5 114.5 277.5 114.5c59.333 0 115.166 -14.167 167.499 -42.5
s95.166 -67.833 128.499 -118.5h2v148h394v-78h-310v-224h301v-78h-301v-296h310v-78h-394zM431.002 689c-86 0 -158.998 -30.5 -218.998 -91.5s-90 -134.5 -90 -220.5c0 -85.333 30.167 -158.666 90.5 -219.999s133.166 -92 218.499 -92s158.166 30.667 218.499 92
s90.5 134.666 90.5 219.999c0 86 -30 159.5 -90 220.5s-133 91.5 -219 91.5z" />
    <glyph glyph-name="oe" unicode="&#x153;" horiz-adv-x="940" 
d="M906 218l-371.007 0.000976562c0.666992 -44 15.334 -81.167 44.001 -111.5s65.334 -45.5 110.001 -45.5c59.333 0 107 32.333 143 97l68 -39c-47.333 -88 -119.666 -132 -216.999 -132c-39.333 0 -77.166 10.167 -113.499 30.5s-63.166 47.5 -80.499 81.5
c-20 -35.333 -49.167 -62.833 -87.5 -82.5s-78.5 -29.5 -120.5 -29.5c-68.667 0 -127 24 -175 72s-72 106.333 -72 175c0 69.333 24 128.166 72 176.499s106.333 72.5 175 72.5c44.667 -1.33301 85.834 -12 123.501 -32s65.834 -47.333 84.501 -82
c18 35.333 44.167 62.833 78.5 82.5s72.166 30.167 113.499 31.5c72.667 0 129.334 -25.833 170.001 -77.5s59 -114.167 55 -187.5zM541.993 286.001l281 -0.000976562c-5.33301 34.667 -21 63.834 -47 87.501s-56.333 35.5 -91 35.5s-66 -12 -94 -36s-44.333 -53 -49 -87z
M282.993 409c-48.667 0 -88.667 -16.833 -120 -50.5s-47 -74.834 -47 -123.501s15.667 -89.834 47 -123.501s71.333 -50.5 120 -50.5s88.667 16.833 120 50.5s47 74.834 47 123.501s-15.667 89.834 -47 123.501s-71.333 50.5 -120 50.5z" />
    <glyph glyph-name="Scaron" unicode="&#x160;" horiz-adv-x="559" 
d="M485 650l-67.002 -43c-31.333 54.667 -74.666 82 -129.999 82c-34 0 -63.333 -11 -88 -33s-37 -50 -37 -84c0 -15.333 3.33301 -29.333 10 -42s17 -23.834 31 -33.501s25.833 -17.167 35.5 -22.5s23.5 -12 41.5 -20l50 -22c28.667 -12.667 52.334 -24.5 71.001 -35.5
s37.167 -24.667 55.5 -41s32 -35.833 41 -58.5s13.5 -48.334 13.5 -77.001c0 -65.333 -23 -120.5 -69 -165.5s-102 -67.5 -168 -67.5c-60 0 -111.167 17.833 -153.5 53.5s-69.5 82.834 -81.5 141.501l82 23c5.33301 -39.333 22 -72.5 50 -99.5s61.667 -40.5 101 -40.5
c41.333 0 77.5 14.167 108.5 42.5s46.5 63.166 46.5 104.499c0 16.667 -2.83301 32.167 -8.5 46.5s-12 25.833 -19 34.5s-18.167 18 -33.5 28s-27.333 17.167 -36 21.5s-22.667 10.833 -42 19.5l-46 20c-53.333 24 -94 50 -122 78s-42 66.333 -42 115
c0 56.667 20.667 102.834 62 138.501s91 53.5 149 53.5c42 0 80 -10.167 114 -30.5s61 -49.166 81 -86.499zM446.998 951l-156 -133l-158 133l58 45l100 -85l99 85z" />
    <glyph glyph-name="scaron" unicode="&#x161;" horiz-adv-x="399" 
d="M333 396l-66.999 -34.9971c-6 13.333 -14.667 24.666 -26 33.999s-24 14 -38 14c-14.667 0 -28 -5 -40 -15s-18 -22.333 -18 -37c0 -6 0.833008 -11.5 2.5 -16.5s5 -9.83301 10 -14.5l13 -12c3.66699 -3.33301 9.83398 -7 18.501 -11s15 -7 19 -9s11.667 -5.33301 23 -10
s19 -7.66699 23 -9c33.333 -14 59.833 -31 79.5 -51s29.5 -48 29.5 -84c0 -44 -15.5 -80.5 -46.5 -109.5s-68.5 -43.5 -112.5 -43.5c-39.333 0 -73.666 10.5 -102.999 31.5s-50.333 50.167 -63 87.5l71 30c11.333 -24.667 24 -43.334 38 -56.001s33.333 -19 58 -19
c22 0 40.167 6.66699 54.5 20s21.5 30.666 21.5 51.999c0 19.333 -7.33301 35.333 -22 48s-32.334 23.167 -53.001 31.5s-41.334 17.333 -62.001 27s-38.334 23.667 -53.001 42s-22 41.166 -22 68.499c0 38.667 13.667 70.5 41 95.5s60.333 37.5 99 37.5
c26.667 0 51.5 -8.16699 74.5 -24.5s39.833 -37.166 50.5 -62.499zM357.001 692.003l-156 -133l-158 133l58 45l100 -85l99 85z" />
    <glyph glyph-name="Ydieresis" unicode="&#x178;" horiz-adv-x="593" 
d="M255 324l-247 430h97l192 -336l192 336h97l-247 -430v-324h-84v324zM210 964c14.667 0 27.334 -5.33301 38.001 -16s16 -23.334 16 -38.001s-5.33301 -27.334 -16 -38.001s-23.334 -16 -38.001 -16s-27.334 5.33301 -38.001 16s-16 23.334 -16 38.001
s5.33301 27.334 16 38.001s23.334 16 38.001 16zM407 964c15.333 0 28.166 -5.33301 38.499 -16s15.5 -23.334 15.5 -38.001s-5.16699 -27.334 -15.5 -38.001s-23.166 -16 -38.499 -16s-28.166 5.33301 -38.499 16s-15.5 23.334 -15.5 38.001s5.16699 27.334 15.5 38.001
s23.166 16 38.499 16z" />
    <glyph glyph-name="Zcaron" unicode="&#x17d;" horiz-adv-x="586" 
d="M153 78h401v-78h-540l411 676h-359v78h499zM462 951l-156 -133l-158 133l58 45l100 -85l99 85z" />
    <glyph glyph-name="zcaron" unicode="&#x17e;" horiz-adv-x="519" 
d="M172 74h324v-74h-486l339 396h-276v74h437zM432 692l-156 -133l-158 133l58 45l100 -85l99 85z" />
    <glyph glyph-name="florin" unicode="&#x192;" 
d="M538 825l-15 -75.001c-16.667 7.33301 -33.334 11 -50.001 11c-31.333 0 -52.666 -10.667 -63.999 -32c-7.33301 -15.333 -16 -45.666 -26 -90.999l-25 -136h120l-11 -68h-121l-58 -314c-16 -90 -34 -150 -54 -180c-36.667 -53.333 -96.334 -80 -179.001 -80l-50 4l16 75
l34 -1c22.667 0 42.5 3.66699 59.5 11s30.333 15.666 40 24.999s18.167 23.833 25.5 43.5s12.333 35.834 15 48.501s6.33398 32 11.001 58l57 310h-82l11 68h84l28 158c10 56.667 27 100.5 51 131.5s62.333 46.5 115 46.5c24 0 46.667 -4.33301 68 -13z" />
    <glyph glyph-name="circumflex" unicode="&#x2c6;" horiz-adv-x="470" 
d="M78 604l156 133l158 -133l-58 -45l-100 85l-99 -85z" />
    <glyph glyph-name="caron" unicode="&#x2c7;" horiz-adv-x="470" 
d="M392 692l-156 -133l-158 133l58 45l100 -85l99 85z" />
    <glyph glyph-name="uni02C9" unicode="&#x2c9;" horiz-adv-x="499" 
d="M79 682h342v-68h-342v68z" />
    <glyph glyph-name="breve" unicode="&#x2d8;" horiz-adv-x="485" 
d="M79 716h68.998c17.333 -45.333 49 -68 95 -68s77.667 22.667 95 68h69c-5.33301 -40.667 -23.5 -73.5 -54.5 -98.5s-67.5 -37.5 -109.5 -37.5c-41.333 0 -77.666 12.5 -108.999 37.5s-49.666 57.833 -54.999 98.5z" />
    <glyph glyph-name="dotaccent" unicode="&#x2d9;" horiz-adv-x="358" 
d="M179 716c15.333 0 28.166 -5.33301 38.499 -16s15.5 -23.334 15.5 -38.001s-5.16699 -27.334 -15.5 -38.001s-23.166 -16 -38.499 -16s-28.166 5.33301 -38.499 16s-15.5 23.334 -15.5 38.001s5.16699 27.334 15.5 38.001s23.166 16 38.499 16z" />
    <glyph glyph-name="ring" unicode="&#x2da;" horiz-adv-x="350" 
d="M176 747c26.667 0 49.5 -9.5 68.5 -28.5s28.5 -41.833 28.5 -68.5c0 -27.333 -9.5 -50.5 -28.5 -69.5s-41.833 -28.5 -68.5 -28.5s-49.667 9.66699 -69 29s-29 42.333 -29 69s9.66699 49.5 29 68.5s42.333 28.5 69 28.5zM176 697c-13.333 0 -24.666 -4.66699 -33.999 -14
s-14 -20.333 -14 -33c0 -13.333 4.66699 -24.666 14 -33.999s20.666 -14 33.999 -14c12.667 0 23.667 4.66699 33 14s14 20.666 14 33.999s-4.5 24.5 -13.5 33.5s-20.167 13.5 -33.5 13.5z" />
    <glyph glyph-name="ogonek" unicode="&#x2db;" horiz-adv-x="337" 
d="M161 0l64 0.000976562v-2c-53.333 -36 -80 -69.333 -80 -100c0 -14.667 5.33301 -25.834 16 -33.501s23.667 -11.5 39 -11.5c20.667 0 40.667 6 60 18l-10 -66c-20 -10 -41 -15 -63 -15c-29.333 0 -54.833 8.5 -76.5 25.5s-32.5 39.5 -32.5 67.5c0 44 27.667 83 83 117z
" />
    <glyph glyph-name="tilde" unicode="&#x2dc;" horiz-adv-x="506" 
d="M127 588l-49.001 38.999c30 52.667 64 79 102 79c23.333 0 50.333 -7.66699 81 -23c34.667 -15.333 56 -23 64 -23c20 0 38.667 16 56 48l47 -38c-9.33301 -23.333 -23.5 -42.666 -42.5 -57.999s-40.167 -23 -63.5 -23c-18 0 -43 7.66699 -75 23
c-33.333 14.667 -56.666 22 -69.999 22c-12.667 0 -22.5 -4 -29.5 -12s-13.833 -19.333 -20.5 -34z" />
    <glyph glyph-name="hungarumlaut" unicode="&#x2dd;" horiz-adv-x="467" 
d="M223 742l-95 -159l-40 11l59 162zM380 742l-95 -159l-40 11l59 162z" />
    <glyph glyph-name="uni03A9" unicode="&#x3a9;" horiz-adv-x="800" 
d="M222 64v3.00098c-44 37.333 -80.167 84.833 -108.5 142.5s-42.5 122.167 -42.5 193.5c0 105.333 31.667 191.666 95 258.999s142.333 101 237 101c96 0 174.167 -35 234.5 -105s90.5 -153.667 90.5 -251c0 -73.333 -14.833 -139.833 -44.5 -199.5
s-65.834 -106.5 -108.501 -140.5v-3h168v-64h-264v47c48 30 88.333 75 121 135s49 130.333 49 211c0 36.667 -5.33301 72.667 -16 108s-26 68 -46 98s-46 54.167 -78 72.5s-67.667 27.5 -107 27.5c-75.333 0 -136.166 -29.5 -182.499 -88.5s-69.5 -132.167 -69.5 -219.5
c0 -76.667 16.667 -146 50 -208s73.333 -107.333 120 -136v-47h-265v64h167z" />
    <glyph glyph-name="uni03BC" unicode="&#x3bc;" horiz-adv-x="512" 
d="M150 470l0.00390625 -262c0 -18 0.5 -33.333 1.5 -46s3.66699 -25.834 8 -39.501s10.166 -24.667 17.499 -33s17.666 -15.166 30.999 -20.499s29.333 -8 48 -8s34.667 2.66699 48 8s23.666 12.166 30.999 20.499s13.166 19.333 17.499 33s7 26.834 8 39.501
s1.5 28 1.5 46v262h80v-271c0 -141.333 -62 -212 -186 -212c-38 0 -73.333 15.667 -106 47v-298h-80v734h80z" />
    <glyph glyph-name="pi" unicode="&#x3c0;" horiz-adv-x="628" 
d="M599 492l-90.999 -0.000976562v-332c0 -70 5.66699 -123.333 17 -160h-76c-12.667 19.333 -19 70.333 -19 153v339h-204c-4 -78.667 -13.833 -168.667 -29.5 -270s-33.167 -175.333 -52.5 -222h-77c20 54.667 37.667 130.834 53 228.501s24.666 185.5 27.999 263.5
c-59.333 0 -101 -4.66699 -125 -14l-13 52c32 19.333 84.333 29 157 29h440z" />
    <glyph glyph-name="uni2010" unicode="&#x2010;" horiz-adv-x="208" 
d="M2 278h205v-74h-205v74z" />
    <glyph glyph-name="endash" unicode="&#x2013;" horiz-adv-x="500" 
d="M0 278h500v-74h-500v74z" />
    <glyph glyph-name="emdash" unicode="&#x2014;" horiz-adv-x="1000" 
d="M130 278h740v-74h-740v74z" />
    <glyph glyph-name="quoteleft" unicode="&#x2018;" horiz-adv-x="289" 
d="M135 485l-74 27l114 255l54 -21z" />
    <glyph glyph-name="quoteright" unicode="&#x2019;" horiz-adv-x="289" 
d="M154 767l74 -27l-114 -255l-54 21z" />
    <glyph glyph-name="quotesinglbase" unicode="&#x201a;" horiz-adv-x="289" 
d="M155 110l74 -26l-114 -256l-54 22z" />
    <glyph glyph-name="quotedblleft" unicode="&#x201c;" horiz-adv-x="457" 
d="M303 485l-74 27l114 255l54 -21zM135 485l-74 27l114 255l54 -21z" />
    <glyph glyph-name="quotedblright" unicode="&#x201d;" horiz-adv-x="457" 
d="M155 767l74 -27l-114 -255l-54 21zM323 767l74 -27l-114 -255l-54 21z" />
    <glyph glyph-name="quotedblbase" unicode="&#x201e;" horiz-adv-x="464" 
d="M155 110l74 -26l-114 -256l-54 22zM330 110l74 -26l-114 -256l-54 22z" />
    <glyph glyph-name="dagger" unicode="&#x2020;" horiz-adv-x="592" 
d="M255 754h82v-185h167v-78h-167v-654h-82v654h-167v78h167v185z" />
    <glyph glyph-name="daggerdbl" unicode="&#x2021;" horiz-adv-x="592" 
d="M255 754h82v-185h167v-78h-167v-363h167v-78h-167v-213h-82v213h-167v78h167v363h-167v78h167v185z" />
    <glyph glyph-name="bullet" unicode="&#x2022;" horiz-adv-x="592" 
d="M296 189c-52 0 -96.335 18.333 -133.002 55s-55 81 -55 133c-0.666992 52.667 17.333 97.334 54 134.001s81.334 55 134.001 55s97.334 -18.333 134.001 -55s55 -81.334 55 -134.001c0 -52 -18.5 -96.333 -55.5 -133s-81.5 -55 -133.5 -55z" />
    <glyph glyph-name="ellipsis" unicode="&#x2026;" horiz-adv-x="1000" 
d="M168 99c15.333 0 28.5 -5.33301 39.5 -16s16.5 -23.667 16.5 -39s-5.5 -28.666 -16.5 -39.999s-24.167 -17 -39.5 -17s-28.5 5.66699 -39.5 17s-16.5 24.666 -16.5 39.999s5.5 28.333 16.5 39s24.167 16 39.5 16zM500 99c15.333 0 28.5 -5.33301 39.5 -16
s16.5 -23.667 16.5 -39s-5.5 -28.666 -16.5 -39.999s-24.167 -17 -39.5 -17s-28.5 5.66699 -39.5 17s-16.5 24.666 -16.5 39.999s5.5 28.333 16.5 39s24.167 16 39.5 16zM832 99c15.333 0 28.5 -5.33301 39.5 -16s16.5 -23.667 16.5 -39s-5.5 -28.666 -16.5 -39.999
s-24.167 -17 -39.5 -17s-28.5 5.66699 -39.5 17s-16.5 24.666 -16.5 39.999s5.5 28.333 16.5 39s24.167 16 39.5 16z" />
    <glyph glyph-name="perthousand" unicode="&#x2030;" horiz-adv-x="1212" 
d="M202 703c-28 0 -52.333 -9.83301 -73 -29.5s-31 -43.5 -31 -71.5c0 -27.333 10.333 -50.833 31 -70.5s45 -29.5 73 -29.5s52.333 9.83301 73 29.5s31 43.167 31 70.5c0 28 -10.333 51.833 -31 71.5s-45 29.5 -73 29.5zM599 767l40 -24l-436 -756l-43 26zM600 252
c-28 0 -52.333 -9.83301 -73 -29.5s-31 -43.5 -31 -71.5c0 -27.333 10.333 -50.833 31 -70.5s45 -29.5 73 -29.5s52.333 9.83301 73 29.5s31 43.167 31 70.5c0 28 -10.333 51.833 -31 71.5s-45 29.5 -73 29.5zM202 767c46 0 85.5 -16 118.5 -48s49.5 -71 49.5 -117
c0 -45.333 -16.5 -84 -49.5 -116s-72.5 -48 -118.5 -48s-85.5 15.833 -118.5 47.5s-49.5 70.5 -49.5 116.5s16.5 85 49.5 117s72.5 48 118.5 48zM600 316c46 0 85.5 -16 118.5 -48s49.5 -71 49.5 -117c0 -45.333 -16.5 -84 -49.5 -116s-72.5 -48 -118.5 -48
s-85.5 15.833 -118.5 47.5s-49.5 70.5 -49.5 116.5s16.5 85 49.5 117s72.5 48 118.5 48zM1010 316c46 0 85.5 -16 118.5 -48s49.5 -71 49.5 -117c0 -45.333 -16.5 -84 -49.5 -116s-72.5 -48 -118.5 -48s-85.5 15.833 -118.5 47.5s-49.5 70.5 -49.5 116.5s16.5 85 49.5 117
s72.5 48 118.5 48zM1010 252c-28 0 -52.333 -9.83301 -73 -29.5s-31 -43.5 -31 -71.5c0 -27.333 10.333 -50.833 31 -70.5s45 -29.5 73 -29.5s52.333 9.83301 73 29.5s31 43.167 31 70.5c0 28 -10.333 51.833 -31 71.5s-45 29.5 -73 29.5z" />
    <glyph glyph-name="guilsinglleft" unicode="&#x2039;" horiz-adv-x="330" 
d="M127 240l135 -166l-53 -41l-168 207l168 213l53 -42z" />
    <glyph glyph-name="guilsinglright" unicode="&#x203a;" horiz-adv-x="330" 
d="M68 74l135 166l-135 171l53 42l168 -213l-168 -207z" />
    <glyph glyph-name="fraction" unicode="&#x2044;" horiz-adv-x="161" 
d="M278 767l44 -24l-439 -756l-44 24z" />
    <glyph glyph-name="Euro" unicode="&#x20ac;" 
d="M567 715l-0.000976562 -83.001c-40.667 39.333 -97 59 -169 59c-60.667 0 -108.334 -19 -143.001 -57s-55.667 -88.333 -63 -151h327l-23 -64h-313c0 -3.33301 -0.166992 -9.66602 -0.5 -18.999s-0.5 -16.333 -0.5 -21c0 -6 0.166992 -13.667 0.5 -23
s0.5 -15.666 0.5 -18.999h283l-23 -64h-251c9.33301 -68 31.5 -120.333 66.5 -157s81.833 -55 140.5 -55c67.333 0 123.333 20 168 60v-84c-15.333 -13.333 -38.666 -24.833 -69.999 -34.5s-67.666 -14.5 -108.999 -14.5c-78 0 -140.833 23.5 -188.5 70.5
s-77.834 118.5 -90.501 214.5h-80l23 64h51c-1.33301 13.333 -2 27.333 -2 42c0 4.66699 0.166992 11.667 0.5 21s0.5 15.666 0.5 18.999h-73l23 64h56c12.667 86.667 41.834 155.5 87.501 206.5s110.167 76.5 193.5 76.5c76 0 135.333 -17 178 -51z" />
    <glyph glyph-name="afii61289" unicode="&#x2113;" horiz-adv-x="533" 
d="M469 161l38.001 -33c-48.667 -90.667 -117 -136 -205 -136c-58.667 0 -102.834 18.833 -132.501 56.5s-45.834 85.5 -48.501 143.5v13c-7.33301 -5.33301 -18.166 -13.833 -32.499 -25.5l-31.5 -25.5l-24 46c52.667 44 81.667 68.667 87 74v296
c0 90.667 16.333 156.5 49 197.5s72 61.5 118 61.5c44.667 0 78.5 -16.5 101.5 -49.5s34.5 -74.833 34.5 -125.5c0 -120 -76.333 -252.333 -229 -397v-34c0.666992 -56.667 12.667 -99 36 -127s52.333 -42 87 -42c32.667 0 62.167 10.667 88.5 32s47.5 46.333 63.5 75z
M194.001 578l0.000976562 -244.999c116 123.333 174 229.666 174 318.999c0 78.667 -27 118 -81 118c-24.667 0 -46.334 -15.5 -65.001 -46.5s-28 -79.5 -28 -145.5z" />
    <glyph glyph-name="trademark" unicode="&#x2122;" horiz-adv-x="940" 
d="M905 754v-421h-60v361h-2l-144 -361h-39l-140 361h-2v-361h-60v421h101l121 -303l125 303h100zM377 754v-60h-140v-361h-60v361h-141v60h341z" />
    <glyph glyph-name="Omega" unicode="&#x2126;" horiz-adv-x="800" 
d="M222 64v3.00098c-44 37.333 -80.167 84.833 -108.5 142.5s-42.5 122.167 -42.5 193.5c0 105.333 31.667 191.666 95 258.999s142.333 101 237 101c96 0 174.167 -35 234.5 -105s90.5 -153.667 90.5 -251c0 -73.333 -14.833 -139.833 -44.5 -199.5
s-65.834 -106.5 -108.501 -140.5v-3h168v-64h-264v47c48 30 88.333 75 121 135s49 130.333 49 211c0 36.667 -5.33301 72.667 -16 108s-26 68 -46 98s-46 54.167 -78 72.5s-67.667 27.5 -107 27.5c-75.333 0 -136.166 -29.5 -182.499 -88.5s-69.5 -132.167 -69.5 -219.5
c0 -76.667 16.667 -146 50 -208s73.333 -107.333 120 -136v-47h-265v64h167z" />
    <glyph glyph-name="estimated" unicode="&#x212e;" horiz-adv-x="940" 
d="M903 366l-702 -0.000976562c-3.33301 0 -5 -1.66699 -5 -5v-212c0 -8.66699 3 -16.667 9 -24c74.667 -76.667 163 -115 265 -115c54.667 0 106.167 11.333 154.5 34s89.833 54.334 124.5 95.001h63c-40 -46.667 -90 -83.5 -150 -110.5s-124.333 -40.5 -193 -40.5
c-119.333 0 -221.333 37.833 -306 113.5s-127 167.167 -127 274.5c0 108 42.333 200.167 127 276.5s186.667 114.5 306 114.5c120 0 222.333 -38.167 307 -114.5s127 -168.5 127 -276.5v-10zM744 393.999l0.000976562 213.001c0 10 -3.66699 18.667 -11 26
c-74.667 73.333 -162.334 110 -263.001 110c-101.333 0 -189.333 -38 -264 -114c-6.66699 -6.66699 -10 -15.334 -10 -26.001v-209c0 -4.66699 1.66699 -7 5 -7h538c3.33301 0 5 2.33301 5 7z" />
    <glyph glyph-name="partialdiff" unicode="&#x2202;" horiz-adv-x="601" 
d="M112 726l-28.002 55.998c51.333 40 112.333 60 183 60c77.333 0 143 -35.333 197 -106s81 -171 81 -301c0 -129.333 -25 -235.666 -75 -318.999s-120.667 -125 -212 -125c-67.333 0 -119.333 24.833 -156 74.5s-55 107.834 -55 174.501c0 81.333 23 147.333 69 198
s101 76 165 76c45.333 0 84.333 -12 117 -36s55.334 -48 68.001 -72h1c1.33301 8.66699 2 25 2 49c0 95.333 -20.333 173 -61 233s-90 90 -148 90c-57.333 0 -106.666 -17.333 -147.999 -52zM264.998 55.998h1c50.667 0 93.167 26.5 127.5 79.5s55.5 117.5 63.5 193.5
c-10 29.333 -29.833 57 -59.5 83s-64.5 39 -104.5 39c-46 0 -85.667 -20.5 -119 -61.5s-50 -90.5 -50 -148.5c0 -53.333 13 -97.5 39 -132.5s60 -52.5 102 -52.5z" />
    <glyph glyph-name="uni2206" unicode="&#x2206;" horiz-adv-x="715" 
d="M34 0v54l280 718h91l276 -717v-55h-647zM114 63l483 -0.000976562l-164 420c-4.66699 13.333 -17 45.5 -37 96.5s-32.667 85.833 -38 104.5h-4c-4 -14.667 -15 -45.667 -33 -93s-29.333 -77.666 -34 -90.999z" />
    <glyph glyph-name="product" unicode="&#x220f;" horiz-adv-x="771" 
d="M741 681h-122v-785h-76v785h-316v-785h-76v785h-123v70h713v-70z" />
    <glyph glyph-name="summation" unicode="&#x2211;" horiz-adv-x="612" 
d="M586 -104h-561v52l299 374l-286 375v54h531v-67h-422v-4l267 -347l-288 -360v-4h460v-73z" />
    <glyph glyph-name="minus" unicode="&#x2212;" 
d="M66 217v78h484v-78h-484z" />
    <glyph glyph-name="uni2215" unicode="&#x2215;" horiz-adv-x="161" 
d="M278 767l44 -24l-439 -756l-44 24z" />
    <glyph glyph-name="uni2219" unicode="&#x2219;" horiz-adv-x="308" 
d="M154 311c15.333 0 28.5 -5.33301 39.5 -16s16.5 -23.667 16.5 -39s-5.5 -28.666 -16.5 -39.999s-24.167 -17 -39.5 -17s-28.5 5.66699 -39.5 17s-16.5 24.666 -16.5 39.999s5.5 28.333 16.5 39s24.167 16 39.5 16z" />
    <glyph glyph-name="radical" unicode="&#x221a;" horiz-adv-x="628" 
d="M628 892l-245 -1054h-70l-177 501l-82 -31l-17 48l147 57l144 -408c4 -14.667 10.333 -40 19 -76h1c3.33301 20.667 8.33301 46 15 76l206 887h59z" />
    <glyph glyph-name="infinity" unicode="&#x221e;" horiz-adv-x="850" 
d="M794 313v-2.00098c0 -50.667 -16.5 -92 -49.5 -124s-71.833 -48 -116.5 -48c-33.333 0 -65.166 10.333 -95.499 31s-65.833 54 -106.5 100c-24.667 -28 -45 -49.667 -61 -65s-37.333 -30.166 -64 -44.499s-54 -21.5 -82 -21.5c-44.667 0 -83 16.333 -115 49
s-48 72.667 -48 120c0 49.333 16.167 90.333 48.5 123s73.166 49 122.499 49c37.333 0 71.5 -11.5 102.5 -34.5s64.5 -55.5 100.5 -97.5c42.667 46.667 73.667 77.334 93 92.001c36 26.667 73.667 40 113 40c47.333 -0.666992 85.5 -16.334 114.5 -47.001
s43.5 -70.667 43.5 -120zM226 187.999l0.999023 -0.00292969c11.333 0 23 2 35 6s22.167 8.33301 30.5 13s18.666 12.334 30.999 23.001s21 18.5 26 23.5s13.833 14.333 26.5 28s20.334 21.834 23.001 24.501c-1.33301 1.33301 -6.33301 7.16602 -15 17.499
s-14 16.5 -16 18.5s-7 7.5 -15 16.5s-13.5 14.833 -16.5 17.5l-16 14.5c-7.66699 7 -13.834 11.833 -18.501 14.5l-18 10.5c-7.33301 4.33301 -14.166 7.33301 -20.499 9s-13.333 3.33398 -21 5.00098s-15.5 2.5 -23.5 2.5c-34 0 -60.833 -12.167 -80.5 -36.5
s-29.5 -54.166 -29.5 -89.499c0 -33.333 10.833 -61.333 32.5 -84s49.834 -34 84.501 -34zM629.999 431.996l-1.00195 0.00195312c-17.333 0 -35.5 -5.16699 -54.5 -15.5s-33.5 -19.833 -43.5 -28.5s-24.667 -23.334 -44 -44.001s-29.666 -31.667 -30.999 -33
c42.667 -46 75.834 -78 99.501 -96s49.167 -27 76.5 -27c33.333 0 60 12.167 80 36.5s30 52.166 30 83.499c0 38 -10.5 68.167 -31.5 90.5s-47.833 33.5 -80.5 33.5z" />
    <glyph glyph-name="integral" unicode="&#x222b;" horiz-adv-x="388" 
d="M371 902l-12.999 -53.9971c-13.333 8 -27 12 -41 12c-23.333 0 -42 -8.66699 -56 -26c-25.333 -28.667 -38 -93 -38 -193c0 -55.333 2.5 -144.833 7.5 -268.5s7.5 -214.834 7.5 -273.501c0 -96.667 -15.667 -169 -47 -217c-23.333 -36 -59 -54 -107 -54
c-28 0 -51.667 6 -71 18l14 56c18.667 -9.33301 35.667 -14 51 -14c20.667 0 37.667 8.33301 51 25c26 33.333 39 95.666 39 186.999c0 58.667 -2.66699 150.834 -8 276.501s-8 216.5 -8 272.5c0 59.333 4.5 106.666 13.5 141.999s24.167 63.666 45.5 84.999
c25.333 27.333 58.666 41 99.999 41c24 0 44 -5 60 -15z" />
    <glyph glyph-name="approxequal" unicode="&#x2248;" horiz-adv-x="622" 
d="M537 464l32.0029 -28.0029c-34.667 -68.667 -81.334 -103 -140.001 -103c-21.333 0 -40.5 3.5 -57.5 10.5s-41.167 19.167 -72.5 36.5c-44 24.667 -78.667 37 -104 37c-23.333 0 -43.166 -7 -59.499 -21s-33.166 -34.333 -50.499 -61l-34 28
c36.667 68.667 87 103 151 103c12.667 0 25.667 -1.83301 39 -5.5s23.5 -7.16699 30.5 -10.5s17.167 -8.66602 30.5 -15.999s21.333 -11.666 24 -12.999c2 -1.33301 7.16699 -4.16602 15.5 -8.49902s13.666 -7.16602 15.999 -8.49902s6.66602 -3.5 12.999 -6.5
s11.333 -5 15 -6s8.16699 -2.33301 13.5 -4s10.666 -2.83398 15.999 -3.50098s10.666 -1 15.999 -1c22 0 41 6.5 57 19.5s32.333 33.5 49 61.5zM537.003 278.997l32.001 -29.0029c-35.333 -68 -82.333 -102 -141 -102c-20.667 0 -39.5 3.5 -56.5 10.5
s-41.167 19.167 -72.5 36.5c-45.333 24.667 -80 37 -104 37c-23.333 0 -43.333 -7.33301 -60 -22s-33.334 -35 -50.001 -61l-34 29c36.667 68.667 87 103 151 103c12.667 0 25.667 -1.83301 39 -5.5s23.5 -7.16699 30.5 -10.5s17.167 -8.66602 30.5 -15.999
s21.333 -11.666 24 -12.999c3.33301 -2 10 -5.66699 20 -11s17.167 -9 21.5 -11s10.5 -4.5 18.5 -7.5s15.667 -5.16699 23 -6.5s15 -2 23 -2c21.333 0 40 6.33301 56 19s32.333 33.334 49 62.001z" />
    <glyph glyph-name="notequal" unicode="&#x2260;" horiz-adv-x="622" 
d="M440 546l-50 -109h175v-51h-196l-75 -161h271v-51h-292l-60 -130l-41 19l52 111h-168v51h189l75 161h-264v51h284l60 128z" />
    <glyph glyph-name="lessequal" unicode="&#x2264;" horiz-adv-x="622" 
d="M562 101l-499 246v54l499 246v-61l-444 -210v-2l444 -212v-61zM565 4h-509v52h509v-52z" />
    <glyph glyph-name="greaterequal" unicode="&#x2265;" horiz-adv-x="622" 
d="M64 647l499 -246v-54l-499 -246v61l443 211v2l-443 211v61zM564 4h-507v52h507v-52z" />
    <glyph glyph-name="lozenge" unicode="&#x25ca;" horiz-adv-x="628" 
d="M567 375l-223 -425h-63l-221 425l223 426h63zM496 373l-161.001 307.999c-6 12.667 -13 31 -21 55h-2c-6 -20 -13.333 -38.333 -22 -55l-159 -304l162 -309c10 -24.667 16.333 -42.667 19 -54h4c6.66699 22.667 13.334 40.334 20.001 53.001z" />
    <glyph glyph-name="fi" unicode="&#xfb01;" horiz-adv-x="519" 
d="M151 396v-396.002h-80v396h-44v74h44v187c0 58.667 7 99.334 21 122.001c24.667 39.333 65 59 121 59c16.667 0 35.667 -3.33301 57 -10v-81c-22 7.33301 -40 11 -54 11c-12.667 0 -23.167 -2.16699 -31.5 -6.5s-14.833 -9.16602 -19.5 -14.499s-8 -14.5 -10 -27.5
s-3.16699 -24.333 -3.5 -34s-0.5 -25.167 -0.5 -46.5v-159h119v-74h-119zM428 469.998v-470h-80v470h80zM388 703.998c15.333 0 28.666 -5.66699 39.999 -17s17 -24.666 17 -39.999c0 -16 -5.66699 -29.5 -17 -40.5s-24.666 -16.5 -39.999 -16.5s-28.666 5.5 -39.999 16.5
s-17 24.5 -17 40.5c0 15.333 5.66699 28.666 17 39.999s24.666 17 39.999 17z" />
    <glyph glyph-name="fl" unicode="&#xfb02;" horiz-adv-x="501" 
d="M428 825v-825h-80v825h80zM151 396v-396.002h-80v396h-44v74h44v187c0 58.667 7 99.334 21 122.001c24.667 39.333 65 59 121 59c16.667 0 35.667 -3.33301 57 -10v-81c-22 7.33301 -40 11 -54 11c-12.667 0 -23.167 -2.16699 -31.5 -6.5s-14.833 -9.16602 -19.5 -14.499
s-8 -14.5 -10 -27.5s-3.16699 -24.333 -3.5 -34s-0.5 -25.167 -0.5 -46.5v-159h119v-74h-119z" />
    <glyph glyph-name=".null" horiz-adv-x="0" 
 />
    <glyph glyph-name="nonmarkingreturn" horiz-adv-x="333" 
 />
    <glyph glyph-name="a.superior" horiz-adv-x="346" 
d="M174 723c-29.333 0 -53.501 -10.1689 -72.501 -30.502s-28.5 -44.166 -28.5 -71.499c0 -29.333 9.16699 -54.666 27.5 -75.999s42.833 -32 73.5 -32c32 0 57 10.333 75 31s27 46 27 76c0 29.333 -9.16699 53.833 -27.5 73.5s-43.166 29.5 -74.499 29.5zM325.999 758.998
l-0.00195312 -282h-52v39h-2c-26 -31.333 -61 -47 -105 -47c-43.333 0 -78.5 14.5 -105.5 43.5s-40.5 63.833 -40.5 104.5c0 42 13.333 77.5 40 106.5s62.334 43.5 107.001 43.5c42.667 0 77.334 -16 104.001 -48h2v40h52z" />
    <glyph glyph-name="o.superior" horiz-adv-x="337" 
d="M169 469c-44.667 0 -82.667 14.333 -114 43s-47 63.667 -47 105s15.667 76.666 47 105.999s69.333 44 114 44s82.667 -14.667 114 -44s47 -64.666 47 -105.999s-15.667 -76.333 -47 -105s-69.333 -43 -114 -43zM169 723c-31.333 0 -57.333 -10.167 -78 -30.5
s-31 -45.166 -31 -74.499s10.333 -54.166 31 -74.499s46.667 -30.5 78 -30.5s57.333 10.167 78 30.5s31 45.166 31 74.499s-10.333 54.166 -31 74.499s-46.667 30.5 -78 30.5z" />
    <glyph glyph-name="one.superior" horiz-adv-x="369" 
d="M195 707h-81l29 52h112v-452h-60v400z" />
    <glyph glyph-name="two.superior" horiz-adv-x="369" 
d="M146 359h197v-52h-317l229 250c18.667 20.667 28 46 28 76c0 24.667 -8.66699 44.5 -26 59.5s-39.333 22.5 -66 22.5c-29.333 0 -52.166 -8 -68.499 -24s-24.5 -37.333 -24.5 -64h-60c1.33301 40 16.166 73.333 44.499 100s63.833 40 106.5 40
c44 0 80.667 -12.5 110 -37.5s44 -57.167 44 -96.5c0 -40 -10.667 -71.667 -32 -95z" />
    <glyph glyph-name="three.superior" horiz-adv-x="369" 
d="M175 519l0.000976562 52c26.667 0 48.5 6.16699 65.5 18.5s25.5 29.5 25.5 51.5c0 22.667 -8.16699 40.667 -24.5 54s-34.833 20 -55.5 20c-44.667 0 -69.667 -22.333 -75 -67h-60c4 36.667 17.667 65.667 41 87s55 32 95 32s73.167 -11.5 99.5 -34.5
s39.5 -52.833 39.5 -89.5c0 -20.667 -5.66699 -40 -17 -58s-26.666 -31.667 -45.999 -41c23.333 -9.33301 40.833 -24 52.5 -44s17.5 -42.333 17.5 -67c0 -42 -14 -74.833 -42 -98.5s-64.667 -35.5 -110 -35.5c-40.667 0 -74.834 11.667 -102.501 35
s-41.834 53.333 -42.501 90h60c0 -22.667 8.16699 -40.5 24.5 -53.5s37.166 -19.5 62.499 -19.5c26.667 0 48.334 8 65.001 24s25 36.333 25 61c0 26 -9 46.667 -27 62s-41.667 22.333 -71 21z" />
    </font>
</defs>
</svg>
